<svg width="55" height="55" viewBox="0 0 55 55" fill="none" xmlns="http://www.w3.org/2000/svg">
<circle cx="27.5" cy="27.5" r="25.5" stroke="#C86000" stroke-width="4"/>
<path d="M20.608 17.816C21.0027 17.4853 21.4293 17.176 21.888 16.888C22.3573 16.6 22.8587 16.3493 23.392 16.136C23.9253 15.912 24.496 15.7413 25.104 15.624C25.7227 15.496 26.3893 15.432 27.104 15.432C28.1067 15.432 29.008 15.5653 29.808 15.832C30.6187 16.0987 31.3067 16.4827 31.872 16.984C32.4373 17.4747 32.8693 18.072 33.168 18.776C33.4773 19.4693 33.632 20.2427 33.632 21.096C33.632 21.9173 33.52 22.6213 33.296 23.208C33.072 23.7947 32.784 24.3067 32.432 24.744C32.0907 25.1813 31.712 25.56 31.296 25.88C30.8907 26.1893 30.5013 26.4827 30.128 26.76C29.7653 27.0373 29.4453 27.3093 29.168 27.576C28.9013 27.8427 28.736 28.1413 28.672 28.472L28.224 30.712H24.832L24.48 28.136C24.4693 28.072 24.4587 28.008 24.448 27.944C24.448 27.88 24.448 27.816 24.448 27.752C24.448 27.2827 24.56 26.872 24.784 26.52C25.008 26.168 25.2907 25.848 25.632 25.56C25.9733 25.2613 26.3413 24.9787 26.736 24.712C27.1307 24.4347 27.4987 24.1413 27.84 23.832C28.1813 23.512 28.464 23.16 28.688 22.776C28.912 22.3813 29.024 21.9173 29.024 21.384C29.024 20.744 28.8107 20.2373 28.384 19.864C27.968 19.48 27.392 19.288 26.656 19.288C26.0907 19.288 25.616 19.3467 25.232 19.464C24.8587 19.5813 24.5333 19.7147 24.256 19.864C23.9893 20.0027 23.7547 20.1307 23.552 20.248C23.3493 20.3653 23.1467 20.424 22.944 20.424C22.4853 20.424 22.144 20.2267 21.92 19.832L20.608 17.816ZM23.552 36.488C23.552 36.104 23.6213 35.7467 23.76 35.416C23.9093 35.0853 24.1067 34.7973 24.352 34.552C24.608 34.3067 24.9067 34.1147 25.248 33.976C25.5893 33.8267 25.9627 33.752 26.368 33.752C26.7627 33.752 27.1307 33.8267 27.472 33.976C27.8133 34.1147 28.112 34.3067 28.368 34.552C28.624 34.7973 28.8213 35.0853 28.96 35.416C29.1093 35.7467 29.184 36.104 29.184 36.488C29.184 36.872 29.1093 37.2347 28.96 37.576C28.8213 37.9067 28.624 38.1947 28.368 38.44C28.112 38.6853 27.8133 38.8773 27.472 39.016C27.1307 39.1547 26.7627 39.224 26.368 39.224C25.9627 39.224 25.5893 39.1547 25.248 39.016C24.9067 38.8773 24.608 38.6853 24.352 38.44C24.1067 38.1947 23.9093 37.9067 23.76 37.576C23.6213 37.2347 23.552 36.872 23.552 36.488Z" fill="#C86000"/>
<path d="M20.608 17.816L19.9658 17.0495L19.2864 17.6186L19.7699 18.3615L20.608 17.816ZM21.888 16.888L21.365 16.0356L21.3562 16.0411L21.888 16.888ZM23.392 16.136L23.7634 17.0645L23.7713 17.0613L23.7792 17.058L23.392 16.136ZM25.104 15.624L25.2935 16.606L25.3066 16.6033L25.104 15.624ZM29.808 15.832L29.4918 16.7807L29.4955 16.7819L29.808 15.832ZM31.872 16.984L31.2085 17.7322L31.2165 17.7392L31.872 16.984ZM33.168 18.776L32.2474 19.1665L32.251 19.175L32.2548 19.1834L33.168 18.776ZM33.296 23.208L32.3618 22.8513V22.8513L33.296 23.208ZM32.432 24.744L31.653 24.117L31.6483 24.1228L31.6437 24.1287L32.432 24.744ZM31.296 25.88L31.9027 26.675L31.9057 26.6726L31.296 25.88ZM30.128 26.76L29.5316 25.9572L29.5205 25.9656L30.128 26.76ZM29.168 27.576L28.4749 26.8552L28.4678 26.862L28.4609 26.8689L29.168 27.576ZM28.672 28.472L29.6526 28.6681L29.6538 28.662L28.672 28.472ZM28.224 30.712V31.712H29.0438L29.2046 30.9081L28.224 30.712ZM24.832 30.712L23.8412 30.8474L23.9594 31.712H24.832V30.712ZM24.48 28.136L25.4708 28.0006L25.4688 27.9861L25.4664 27.9716L24.48 28.136ZM24.448 27.944H23.448V28.0268L23.4616 28.1084L24.448 27.944ZM25.632 25.56L26.2769 26.3243L26.2837 26.3185L26.2905 26.3126L25.632 25.56ZM26.736 24.712L27.2959 25.5406L27.3034 25.5355L27.3109 25.5302L26.736 24.712ZM27.84 23.832L28.5115 24.573L28.5178 24.5673L28.5239 24.5615L27.84 23.832ZM28.688 22.776L29.5518 23.2799L29.5577 23.2696L28.688 22.776ZM28.384 19.864L27.7057 20.5988L27.7155 20.6078L27.7255 20.6166L28.384 19.864ZM25.232 19.464L24.9398 18.5076L24.9322 18.51L25.232 19.464ZM24.256 19.864L24.7174 20.7512L24.7238 20.7479L24.7301 20.7445L24.256 19.864ZM23.552 20.248L24.053 21.1134L24.053 21.1134L23.552 20.248ZM21.92 19.832L22.7897 19.3384L22.7747 19.312L22.7581 19.2865L21.92 19.832ZM23.76 35.416L22.8486 35.0044L22.843 35.0168L22.8378 35.0293L23.76 35.416ZM24.352 34.552L23.6601 33.83L23.6524 33.8374L23.6449 33.8449L24.352 34.552ZM25.248 33.976L25.6244 34.9025L25.6367 34.8975L25.6488 34.8922L25.248 33.976ZM27.472 33.976L27.0712 34.8922L27.0833 34.8975L27.0956 34.9025L27.472 33.976ZM28.368 34.552L27.6761 35.274L27.6761 35.274L28.368 34.552ZM28.96 35.416L28.0378 35.8027L28.043 35.8152L28.0486 35.8276L28.96 35.416ZM28.96 37.576L28.0438 37.1752L28.0408 37.1822L28.0378 37.1893L28.96 37.576ZM28.368 38.44L27.6761 37.718H27.6761L28.368 38.44ZM27.472 39.016L27.0956 38.0895L27.472 39.016ZM25.248 39.016L25.6244 38.0895L25.248 39.016ZM24.352 38.44L23.6449 39.1471L23.6524 39.1546L23.6601 39.162L24.352 38.44ZM23.76 37.576L22.8335 37.9524L22.8407 37.9701L22.8486 37.9876L23.76 37.576ZM21.2502 18.5825C21.6082 18.2826 21.9977 17.9999 22.4198 17.7349L21.3562 16.0411C20.8609 16.3521 20.3971 16.6881 19.9658 17.0495L21.2502 18.5825ZM22.411 17.7403C22.83 17.4832 23.2804 17.2577 23.7634 17.0645L23.0206 15.2075C22.4369 15.441 21.8846 15.7168 21.365 16.0357L22.411 17.7403ZM23.7792 17.058C24.2446 16.8625 24.7486 16.711 25.2935 16.6059L24.9145 14.6421C24.2434 14.7716 23.6061 14.9615 23.0048 15.214L23.7792 17.058ZM25.3066 16.6033C25.8506 16.4907 26.4487 16.432 27.104 16.432V14.432C26.33 14.432 25.5947 14.5013 24.9014 14.6447L25.3066 16.6033ZM27.104 16.432C28.0189 16.432 28.8109 16.5537 29.4918 16.7807L30.1242 14.8833C29.2051 14.5769 28.1944 14.432 27.104 14.432V16.432ZM29.4955 16.7819C30.1934 17.0115 30.7576 17.3323 31.2085 17.7322L32.5355 16.2358C31.8557 15.633 31.0439 15.1858 30.1205 14.8821L29.4955 16.7819ZM31.2165 17.7392C31.6643 18.1279 32.0069 18.5996 32.2474 19.1665L34.0886 18.3854C33.7318 17.5444 33.2103 16.8214 32.5275 16.2288L31.2165 17.7392ZM32.2548 19.1834C32.5002 19.7335 32.632 20.3656 32.632 21.096H34.632C34.632 20.1197 34.4545 19.2051 34.0812 18.3686L32.2548 19.1834ZM32.632 21.096C32.632 21.831 32.5312 22.4076 32.3618 22.8513L34.2302 23.5647C34.5088 22.8351 34.632 22.0037 34.632 21.096H32.632ZM32.3618 22.8513C32.1707 23.3518 31.9322 23.7701 31.653 24.117L33.211 25.371C33.6358 24.8432 33.9733 24.2376 34.2302 23.5647L32.3618 22.8513ZM31.6437 24.1287C31.3512 24.5034 31.0318 24.8216 30.6863 25.0874L31.9057 26.6726C32.3922 26.2984 32.8301 25.8592 33.2203 25.3593L31.6437 24.1287ZM30.6893 25.085C30.2871 25.392 29.9012 25.6827 29.5317 25.9573L30.7243 27.5627C31.1014 27.2826 31.4942 26.9867 31.9027 26.6749L30.6893 25.085ZM29.5205 25.9656C29.1333 26.2618 28.7838 26.5581 28.4749 26.8552L29.8611 28.2968C30.1068 28.0605 30.3974 27.8129 30.7355 27.5544L29.5205 25.9656ZM28.4609 26.8689C28.0707 27.2591 27.7966 27.7324 27.6902 28.282L29.6538 28.662C29.6754 28.5503 29.732 28.4262 29.8751 28.2831L28.4609 26.8689ZM27.6914 28.2759L27.2434 30.5159L29.2046 30.9081L29.6526 28.6681L27.6914 28.2759ZM28.224 29.712H24.832V31.712H28.224V29.712ZM25.8228 30.5766L25.4708 28.0006L23.4892 28.2714L23.8412 30.8474L25.8228 30.5766ZM25.4664 27.9716C25.4557 27.9076 25.4451 27.8436 25.4344 27.7796L23.4616 28.1084C23.4723 28.1724 23.4829 28.2364 23.4936 28.3004L25.4664 27.9716ZM25.448 27.944C25.448 27.9439 25.448 27.9437 25.448 27.9436C25.448 27.9435 25.448 27.9434 25.448 27.9432C25.448 27.9431 25.448 27.943 25.448 27.9429C25.448 27.9427 25.448 27.9426 25.448 27.9425C25.448 27.9424 25.448 27.9422 25.448 27.9421C25.448 27.942 25.448 27.9419 25.448 27.9417C25.448 27.9416 25.448 27.9415 25.448 27.9414C25.448 27.9412 25.448 27.9411 25.448 27.941C25.448 27.9409 25.448 27.9408 25.448 27.9406C25.448 27.9405 25.448 27.9404 25.448 27.9402C25.448 27.9401 25.448 27.94 25.448 27.9399C25.448 27.9397 25.448 27.9396 25.448 27.9395C25.448 27.9394 25.448 27.9392 25.448 27.9391C25.448 27.939 25.448 27.9389 25.448 27.9387C25.448 27.9386 25.448 27.9385 25.448 27.9384C25.448 27.9382 25.448 27.9381 25.448 27.938C25.448 27.9379 25.448 27.9377 25.448 27.9376C25.448 27.9375 25.448 27.9374 25.448 27.9373C25.448 27.9371 25.448 27.937 25.448 27.9369C25.448 27.9367 25.448 27.9366 25.448 27.9365C25.448 27.9364 25.448 27.9362 25.448 27.9361C25.448 27.936 25.448 27.9359 25.448 27.9357C25.448 27.9356 25.448 27.9355 25.448 27.9354C25.448 27.9352 25.448 27.9351 25.448 27.935C25.448 27.9349 25.448 27.9347 25.448 27.9346C25.448 27.9345 25.448 27.9344 25.448 27.9342C25.448 27.9341 25.448 27.934 25.448 27.9339C25.448 27.9338 25.448 27.9336 25.448 27.9335C25.448 27.9334 25.448 27.9332 25.448 27.9331C25.448 27.933 25.448 27.9329 25.448 27.9327C25.448 27.9326 25.448 27.9325 25.448 27.9324C25.448 27.9322 25.448 27.9321 25.448 27.932C25.448 27.9319 25.448 27.9317 25.448 27.9316C25.448 27.9315 25.448 27.9314 25.448 27.9312C25.448 27.9311 25.448 27.931 25.448 27.9309C25.448 27.9307 25.448 27.9306 25.448 27.9305C25.448 27.9304 25.448 27.9303 25.448 27.9301C25.448 27.93 25.448 27.9299 25.448 27.9297C25.448 27.9296 25.448 27.9295 25.448 27.9294C25.448 27.9292 25.448 27.9291 25.448 27.929C25.448 27.9289 25.448 27.9287 25.448 27.9286C25.448 27.9285 25.448 27.9284 25.448 27.9282C25.448 27.9281 25.448 27.928 25.448 27.9279C25.448 27.9277 25.448 27.9276 25.448 27.9275C25.448 27.9274 25.448 27.9272 25.448 27.9271C25.448 27.927 25.448 27.9269 25.448 27.9268C25.448 27.9266 25.448 27.9265 25.448 27.9264C25.448 27.9262 25.448 27.9261 25.448 27.926C25.448 27.9259 25.448 27.9257 25.448 27.9256C25.448 27.9255 25.448 27.9254 25.448 27.9252C25.448 27.9251 25.448 27.925 25.448 27.9249C25.448 27.9247 25.448 27.9246 25.448 27.9245C25.448 27.9244 25.448 27.9242 25.448 27.9241C25.448 27.924 25.448 27.9239 25.448 27.9237C25.448 27.9236 25.448 27.9235 25.448 27.9234C25.448 27.9233 25.448 27.9231 25.448 27.923C25.448 27.9229 25.448 27.9227 25.448 27.9226C25.448 27.9225 25.448 27.9224 25.448 27.9222C25.448 27.9221 25.448 27.922 25.448 27.9219C25.448 27.9217 25.448 27.9216 25.448 27.9215C25.448 27.9214 25.448 27.9212 25.448 27.9211C25.448 27.921 25.448 27.9209 25.448 27.9207C25.448 27.9206 25.448 27.9205 25.448 27.9204C25.448 27.9202 25.448 27.9201 25.448 27.92C25.448 27.9199 25.448 27.9198 25.448 27.9196C25.448 27.9195 25.448 27.9194 25.448 27.9192C25.448 27.9191 25.448 27.919 25.448 27.9189C25.448 27.9187 25.448 27.9186 25.448 27.9185C25.448 27.9184 25.448 27.9182 25.448 27.9181C25.448 27.918 25.448 27.9179 25.448 27.9177C25.448 27.9176 25.448 27.9175 25.448 27.9174C25.448 27.9172 25.448 27.9171 25.448 27.917C25.448 27.9169 25.448 27.9167 25.448 27.9166C25.448 27.9165 25.448 27.9164 25.448 27.9163C25.448 27.9161 25.448 27.916 25.448 27.9159C25.448 27.9157 25.448 27.9156 25.448 27.9155C25.448 27.9154 25.448 27.9152 25.448 27.9151C25.448 27.915 25.448 27.9149 25.448 27.9147C25.448 27.9146 25.448 27.9145 25.448 27.9144C25.448 27.9142 25.448 27.9141 25.448 27.914C25.448 27.9139 25.448 27.9137 25.448 27.9136C25.448 27.9135 25.448 27.9134 25.448 27.9132C25.448 27.9131 25.448 27.913 25.448 27.9129C25.448 27.9128 25.448 27.9126 25.448 27.9125C25.448 27.9124 25.448 27.9122 25.448 27.9121C25.448 27.912 25.448 27.9119 25.448 27.9117C25.448 27.9116 25.448 27.9115 25.448 27.9114C25.448 27.9112 25.448 27.9111 25.448 27.911C25.448 27.9109 25.448 27.9107 25.448 27.9106C25.448 27.9105 25.448 27.9104 25.448 27.9102C25.448 27.9101 25.448 27.91 25.448 27.9099C25.448 27.9097 25.448 27.9096 25.448 27.9095C25.448 27.9094 25.448 27.9093 25.448 27.9091C25.448 27.909 25.448 27.9089 25.448 27.9087C25.448 27.9086 25.448 27.9085 25.448 27.9084C25.448 27.9082 25.448 27.9081 25.448 27.908C25.448 27.9079 25.448 27.9077 25.448 27.9076C25.448 27.9075 25.448 27.9074 25.448 27.9072C25.448 27.9071 25.448 27.907 25.448 27.9069C25.448 27.9067 25.448 27.9066 25.448 27.9065C25.448 27.9064 25.448 27.9062 25.448 27.9061C25.448 27.906 25.448 27.9059 25.448 27.9058C25.448 27.9056 25.448 27.9055 25.448 27.9054C25.448 27.9052 25.448 27.9051 25.448 27.905C25.448 27.9049 25.448 27.9047 25.448 27.9046C25.448 27.9045 25.448 27.9044 25.448 27.9042C25.448 27.9041 25.448 27.904 25.448 27.9039C25.448 27.9037 25.448 27.9036 25.448 27.9035C25.448 27.9034 25.448 27.9032 25.448 27.9031C25.448 27.903 25.448 27.9029 25.448 27.9028C25.448 27.9026 25.448 27.9025 25.448 27.9024C25.448 27.9023 25.448 27.9021 25.448 27.902C25.448 27.9019 25.448 27.9017 25.448 27.9016C25.448 27.9015 25.448 27.9014 25.448 27.9012C25.448 27.9011 25.448 27.901 25.448 27.9009C25.448 27.9007 25.448 27.9006 25.448 27.9005C25.448 27.9004 25.448 27.9002 25.448 27.9001C25.448 27.9 25.448 27.8999 25.448 27.8997C25.448 27.8996 25.448 27.8995 25.448 27.8994C25.448 27.8993 25.448 27.8991 25.448 27.899C25.448 27.8989 25.448 27.8988 25.448 27.8986C25.448 27.8985 25.448 27.8984 25.448 27.8982C25.448 27.8981 25.448 27.898 25.448 27.8979C25.448 27.8977 25.448 27.8976 25.448 27.8975C25.448 27.8974 25.448 27.8972 25.448 27.8971C25.448 27.897 25.448 27.8969 25.448 27.8967C25.448 27.8966 25.448 27.8965 25.448 27.8964C25.448 27.8962 25.448 27.8961 25.448 27.896C25.448 27.8959 25.448 27.8958 25.448 27.8956C25.448 27.8955 25.448 27.8954 25.448 27.8953C25.448 27.8951 25.448 27.895 25.448 27.8949C25.448 27.8947 25.448 27.8946 25.448 27.8945C25.448 27.8944 25.448 27.8942 25.448 27.8941C25.448 27.894 25.448 27.8939 25.448 27.8937C25.448 27.8936 25.448 27.8935 25.448 27.8934C25.448 27.8932 25.448 27.8931 25.448 27.893C25.448 27.8929 25.448 27.8927 25.448 27.8926C25.448 27.8925 25.448 27.8924 25.448 27.8923C25.448 27.8921 25.448 27.892 25.448 27.8919C25.448 27.8918 25.448 27.8916 25.448 27.8915C25.448 27.8914 25.448 27.8912 25.448 27.8911C25.448 27.891 25.448 27.8909 25.448 27.8907C25.448 27.8906 25.448 27.8905 25.448 27.8904C25.448 27.8902 25.448 27.8901 25.448 27.89C25.448 27.8899 25.448 27.8897 25.448 27.8896C25.448 27.8895 25.448 27.8894 25.448 27.8892C25.448 27.8891 25.448 27.889 25.448 27.8889C25.448 27.8888 25.448 27.8886 25.448 27.8885C25.448 27.8884 25.448 27.8883 25.448 27.8881C25.448 27.888 25.448 27.8879 25.448 27.8877C25.448 27.8876 25.448 27.8875 25.448 27.8874C25.448 27.8872 25.448 27.8871 25.448 27.887C25.448 27.8869 25.448 27.8867 25.448 27.8866C25.448 27.8865 25.448 27.8864 25.448 27.8862C25.448 27.8861 25.448 27.886 25.448 27.8859C25.448 27.8857 25.448 27.8856 25.448 27.8855C25.448 27.8854 25.448 27.8853 25.448 27.8851C25.448 27.885 25.448 27.8849 25.448 27.8848C25.448 27.8846 25.448 27.8845 25.448 27.8844C25.448 27.8842 25.448 27.8841 25.448 27.884C25.448 27.8839 25.448 27.8837 25.448 27.8836C25.448 27.8835 25.448 27.8834 25.448 27.8832C25.448 27.8831 25.448 27.883 25.448 27.8829C25.448 27.8827 25.448 27.8826 25.448 27.8825C25.448 27.8824 25.448 27.8822 25.448 27.8821C25.448 27.882 25.448 27.8819 25.448 27.8818C25.448 27.8816 25.448 27.8815 25.448 27.8814C25.448 27.8813 25.448 27.8811 25.448 27.881C25.448 27.8809 25.448 27.8807 25.448 27.8806C25.448 27.8805 25.448 27.8804 25.448 27.8802C25.448 27.8801 25.448 27.88 25.448 27.8799C25.448 27.8797 25.448 27.8796 25.448 27.8795C25.448 27.8794 25.448 27.8792 25.448 27.8791C25.448 27.879 25.448 27.8789 25.448 27.8787C25.448 27.8786 25.448 27.8785 25.448 27.8784C25.448 27.8783 25.448 27.8781 25.448 27.878C25.448 27.8779 25.448 27.8778 25.448 27.8776C25.448 27.8775 25.448 27.8774 25.448 27.8772C25.448 27.8771 25.448 27.877 25.448 27.8769C25.448 27.8767 25.448 27.8766 25.448 27.8765C25.448 27.8764 25.448 27.8762 25.448 27.8761C25.448 27.876 25.448 27.8759 25.448 27.8757C25.448 27.8756 25.448 27.8755 25.448 27.8754C25.448 27.8752 25.448 27.8751 25.448 27.875C25.448 27.8749 25.448 27.8748 25.448 27.8746C25.448 27.8745 25.448 27.8744 25.448 27.8743C25.448 27.8741 25.448 27.874 25.448 27.8739C25.448 27.8737 25.448 27.8736 25.448 27.8735C25.448 27.8734 25.448 27.8732 25.448 27.8731C25.448 27.873 25.448 27.8729 25.448 27.8727C25.448 27.8726 25.448 27.8725 25.448 27.8724C25.448 27.8722 25.448 27.8721 25.448 27.872C25.448 27.8719 25.448 27.8717 25.448 27.8716C25.448 27.8715 25.448 27.8714 25.448 27.8713C25.448 27.8711 25.448 27.871 25.448 27.8709C25.448 27.8708 25.448 27.8706 25.448 27.8705C25.448 27.8704 25.448 27.8702 25.448 27.8701C25.448 27.87 25.448 27.8699 25.448 27.8697C25.448 27.8696 25.448 27.8695 25.448 27.8694C25.448 27.8692 25.448 27.8691 25.448 27.869C25.448 27.8689 25.448 27.8687 25.448 27.8686C25.448 27.8685 25.448 27.8684 25.448 27.8682C25.448 27.8681 25.448 27.868 25.448 27.8679C25.448 27.8678 25.448 27.8676 25.448 27.8675C25.448 27.8674 25.448 27.8673 25.448 27.8671C25.448 27.867 25.448 27.8669 25.448 27.8667C25.448 27.8666 25.448 27.8665 25.448 27.8664C25.448 27.8662 25.448 27.8661 25.448 27.866C25.448 27.8659 25.448 27.8657 25.448 27.8656C25.448 27.8655 25.448 27.8654 25.448 27.8652C25.448 27.8651 25.448 27.865 25.448 27.8649C25.448 27.8647 25.448 27.8646 25.448 27.8645C25.448 27.8644 25.448 27.8643 25.448 27.8641C25.448 27.864 25.448 27.8639 25.448 27.8638C25.448 27.8636 25.448 27.8635 25.448 27.8634C25.448 27.8632 25.448 27.8631 25.448 27.863C25.448 27.8629 25.448 27.8627 25.448 27.8626C25.448 27.8625 25.448 27.8624 25.448 27.8622C25.448 27.8621 25.448 27.862 25.448 27.8619C25.448 27.8617 25.448 27.8616 25.448 27.8615C25.448 27.8614 25.448 27.8612 25.448 27.8611C25.448 27.861 25.448 27.8609 25.448 27.8608C25.448 27.8606 25.448 27.8605 25.448 27.8604C25.448 27.8603 25.448 27.8601 25.448 27.86C25.448 27.8599 25.448 27.8597 25.448 27.8596C25.448 27.8595 25.448 27.8594 25.448 27.8592C25.448 27.8591 25.448 27.859 25.448 27.8589C25.448 27.8587 25.448 27.8586 25.448 27.8585C25.448 27.8584 25.448 27.8582 25.448 27.8581C25.448 27.858 25.448 27.8579 25.448 27.8577C25.448 27.8576 25.448 27.8575 25.448 27.8574C25.448 27.8573 25.448 27.8571 25.448 27.857C25.448 27.8569 25.448 27.8568 25.448 27.8566C25.448 27.8565 25.448 27.8564 25.448 27.8562C25.448 27.8561 25.448 27.856 25.448 27.8559C25.448 27.8557 25.448 27.8556 25.448 27.8555C25.448 27.8554 25.448 27.8552 25.448 27.8551C25.448 27.855 25.448 27.8549 25.448 27.8547C25.448 27.8546 25.448 27.8545 25.448 27.8544C25.448 27.8542 25.448 27.8541 25.448 27.854C25.448 27.8539 25.448 27.8538 25.448 27.8536C25.448 27.8535 25.448 27.8534 25.448 27.8533C25.448 27.8531 25.448 27.853 25.448 27.8529C25.448 27.8527 25.448 27.8526 25.448 27.8525C25.448 27.8524 25.448 27.8522 25.448 27.8521C25.448 27.852 25.448 27.8519 25.448 27.8517C25.448 27.8516 25.448 27.8515 25.448 27.8514C25.448 27.8512 25.448 27.8511 25.448 27.851C25.448 27.8509 25.448 27.8507 25.448 27.8506C25.448 27.8505 25.448 27.8504 25.448 27.8503C25.448 27.8501 25.448 27.85 25.448 27.8499C25.448 27.8498 25.448 27.8496 25.448 27.8495C25.448 27.8494 25.448 27.8492 25.448 27.8491C25.448 27.849 25.448 27.8489 25.448 27.8487C25.448 27.8486 25.448 27.8485 25.448 27.8484C25.448 27.8482 25.448 27.8481 25.448 27.848C25.448 27.8479 25.448 27.8477 25.448 27.8476C25.448 27.8475 25.448 27.8474 25.448 27.8472C25.448 27.8471 25.448 27.847 25.448 27.8469C25.448 27.8468 25.448 27.8466 25.448 27.8465C25.448 27.8464 25.448 27.8462 25.448 27.8461C25.448 27.846 25.448 27.8459 25.448 27.8457C25.448 27.8456 25.448 27.8455 25.448 27.8454C25.448 27.8452 25.448 27.8451 25.448 27.845C25.448 27.8449 25.448 27.8447 25.448 27.8446C25.448 27.8445 25.448 27.8444 25.448 27.8442C25.448 27.8441 25.448 27.844 25.448 27.8439C25.448 27.8438 25.448 27.8436 25.448 27.8435C25.448 27.8434 25.448 27.8433 25.448 27.8431C25.448 27.843 25.448 27.8429 25.448 27.8427C25.448 27.8426 25.448 27.8425 25.448 27.8424C25.448 27.8422 25.448 27.8421 25.448 27.842C25.448 27.8419 25.448 27.8417 25.448 27.8416C25.448 27.8415 25.448 27.8414 25.448 27.8412C25.448 27.8411 25.448 27.841 25.448 27.8409C25.448 27.8407 25.448 27.8406 25.448 27.8405C25.448 27.8404 25.448 27.8403 25.448 27.8401C25.448 27.84 25.448 27.8399 25.448 27.8398C25.448 27.8396 25.448 27.8395 25.448 27.8394C25.448 27.8392 25.448 27.8391 25.448 27.839C25.448 27.8389 25.448 27.8387 25.448 27.8386C25.448 27.8385 25.448 27.8384 25.448 27.8382C25.448 27.8381 25.448 27.838 25.448 27.8379C25.448 27.8377 25.448 27.8376 25.448 27.8375C25.448 27.8374 25.448 27.8372 25.448 27.8371C25.448 27.837 25.448 27.8369 25.448 27.8368C25.448 27.8366 25.448 27.8365 25.448 27.8364C25.448 27.8363 25.448 27.8361 25.448 27.836C25.448 27.8359 25.448 27.8357 25.448 27.8356C25.448 27.8355 25.448 27.8354 25.448 27.8352C25.448 27.8351 25.448 27.835 25.448 27.8349C25.448 27.8347 25.448 27.8346 25.448 27.8345C25.448 27.8344 25.448 27.8342 25.448 27.8341C25.448 27.834 25.448 27.8339 25.448 27.8337C25.448 27.8336 25.448 27.8335 25.448 27.8334C25.448 27.8333 25.448 27.8331 25.448 27.833C25.448 27.8329 25.448 27.8328 25.448 27.8326C25.448 27.8325 25.448 27.8324 25.448 27.8322C25.448 27.8321 25.448 27.832 25.448 27.8319C25.448 27.8317 25.448 27.8316 25.448 27.8315C25.448 27.8314 25.448 27.8312 25.448 27.8311C25.448 27.831 25.448 27.8309 25.448 27.8307C25.448 27.8306 25.448 27.8305 25.448 27.8304C25.448 27.8302 25.448 27.8301 25.448 27.83C25.448 27.8299 25.448 27.8298 25.448 27.8296C25.448 27.8295 25.448 27.8294 25.448 27.8293C25.448 27.8291 25.448 27.829 25.448 27.8289C25.448 27.8287 25.448 27.8286 25.448 27.8285C25.448 27.8284 25.448 27.8282 25.448 27.8281C25.448 27.828 25.448 27.8279 25.448 27.8277C25.448 27.8276 25.448 27.8275 25.448 27.8274C25.448 27.8272 25.448 27.8271 25.448 27.827C25.448 27.8269 25.448 27.8267 25.448 27.8266C25.448 27.8265 25.448 27.8264 25.448 27.8263C25.448 27.8261 25.448 27.826 25.448 27.8259C25.448 27.8258 25.448 27.8256 25.448 27.8255C25.448 27.8254 25.448 27.8252 25.448 27.8251C25.448 27.825 25.448 27.8249 25.448 27.8247C25.448 27.8246 25.448 27.8245 25.448 27.8244C25.448 27.8242 25.448 27.8241 25.448 27.824C25.448 27.8239 25.448 27.8237 25.448 27.8236C25.448 27.8235 25.448 27.8234 25.448 27.8232C25.448 27.8231 25.448 27.823 25.448 27.8229C25.448 27.8228 25.448 27.8226 25.448 27.8225C25.448 27.8224 25.448 27.8223 25.448 27.8221C25.448 27.822 25.448 27.8219 25.448 27.8217C25.448 27.8216 25.448 27.8215 25.448 27.8214C25.448 27.8212 25.448 27.8211 25.448 27.821C25.448 27.8209 25.448 27.8207 25.448 27.8206C25.448 27.8205 25.448 27.8204 25.448 27.8202C25.448 27.8201 25.448 27.82 25.448 27.8199C25.448 27.8197 25.448 27.8196 25.448 27.8195C25.448 27.8194 25.448 27.8193 25.448 27.8191C25.448 27.819 25.448 27.8189 25.448 27.8188C25.448 27.8186 25.448 27.8185 25.448 27.8184C25.448 27.8182 25.448 27.8181 25.448 27.818C25.448 27.8179 25.448 27.8177 25.448 27.8176C25.448 27.8175 25.448 27.8174 25.448 27.8172C25.448 27.8171 25.448 27.817 25.448 27.8169C25.448 27.8167 25.448 27.8166 25.448 27.8165C25.448 27.8164 25.448 27.8162 25.448 27.8161C25.448 27.816 25.448 27.8159 25.448 27.8158C25.448 27.8156 25.448 27.8155 25.448 27.8154C25.448 27.8153 25.448 27.8151 25.448 27.815C25.448 27.8149 25.448 27.8147 25.448 27.8146C25.448 27.8145 25.448 27.8144 25.448 27.8142C25.448 27.8141 25.448 27.814 25.448 27.8139C25.448 27.8137 25.448 27.8136 25.448 27.8135C25.448 27.8134 25.448 27.8132 25.448 27.8131C25.448 27.813 25.448 27.8129 25.448 27.8127C25.448 27.8126 25.448 27.8125 25.448 27.8124C25.448 27.8123 25.448 27.8121 25.448 27.812C25.448 27.8119 25.448 27.8118 25.448 27.8116C25.448 27.8115 25.448 27.8114 25.448 27.8112C25.448 27.8111 25.448 27.811 25.448 27.8109C25.448 27.8107 25.448 27.8106 25.448 27.8105C25.448 27.8104 25.448 27.8102 25.448 27.8101C25.448 27.81 25.448 27.8099 25.448 27.8097C25.448 27.8096 25.448 27.8095 25.448 27.8094C25.448 27.8092 25.448 27.8091 25.448 27.809C25.448 27.8089 25.448 27.8088 25.448 27.8086C25.448 27.8085 25.448 27.8084 25.448 27.8083C25.448 27.8081 25.448 27.808 25.448 27.8079C25.448 27.8077 25.448 27.8076 25.448 27.8075C25.448 27.8074 25.448 27.8072 25.448 27.8071C25.448 27.807 25.448 27.8069 25.448 27.8067C25.448 27.8066 25.448 27.8065 25.448 27.8064C25.448 27.8062 25.448 27.8061 25.448 27.806C25.448 27.8059 25.448 27.8057 25.448 27.8056C25.448 27.8055 25.448 27.8054 25.448 27.8053C25.448 27.8051 25.448 27.805 25.448 27.8049C25.448 27.8048 25.448 27.8046 25.448 27.8045C25.448 27.8044 25.448 27.8042 25.448 27.8041C25.448 27.804 25.448 27.8039 25.448 27.8037C25.448 27.8036 25.448 27.8035 25.448 27.8034C25.448 27.8032 25.448 27.8031 25.448 27.803C25.448 27.8029 25.448 27.8027 25.448 27.8026C25.448 27.8025 25.448 27.8024 25.448 27.8022C25.448 27.8021 25.448 27.802 25.448 27.8019C25.448 27.8018 25.448 27.8016 25.448 27.8015C25.448 27.8014 25.448 27.8013 25.448 27.8011C25.448 27.801 25.448 27.8009 25.448 27.8007C25.448 27.8006 25.448 27.8005 25.448 27.8004C25.448 27.8002 25.448 27.8001 25.448 27.8C25.448 27.7999 25.448 27.7997 25.448 27.7996C25.448 27.7995 25.448 27.7994 25.448 27.7992C25.448 27.7991 25.448 27.799 25.448 27.7989C25.448 27.7987 25.448 27.7986 25.448 27.7985C25.448 27.7984 25.448 27.7983 25.448 27.7981C25.448 27.798 25.448 27.7979 25.448 27.7978C25.448 27.7976 25.448 27.7975 25.448 27.7974C25.448 27.7972 25.448 27.7971 25.448 27.797C25.448 27.7969 25.448 27.7967 25.448 27.7966C25.448 27.7965 25.448 27.7964 25.448 27.7962C25.448 27.7961 25.448 27.796 25.448 27.7959C25.448 27.7957 25.448 27.7956 25.448 27.7955C25.448 27.7954 25.448 27.7952 25.448 27.7951C25.448 27.795 25.448 27.7949 25.448 27.7948C25.448 27.7946 25.448 27.7945 25.448 27.7944C25.448 27.7943 25.448 27.7941 25.448 27.794C25.448 27.7939 25.448 27.7937 25.448 27.7936C25.448 27.7935 25.448 27.7934 25.448 27.7932C25.448 27.7931 25.448 27.793 25.448 27.7929C25.448 27.7927 25.448 27.7926 25.448 27.7925C25.448 27.7924 25.448 27.7922 25.448 27.7921C25.448 27.792 25.448 27.7919 25.448 27.7917C25.448 27.7916 25.448 27.7915 25.448 27.7914C25.448 27.7913 25.448 27.7911 25.448 27.791C25.448 27.7909 25.448 27.7908 25.448 27.7906C25.448 27.7905 25.448 27.7904 25.448 27.7902C25.448 27.7901 25.448 27.79 25.448 27.7899C25.448 27.7897 25.448 27.7896 25.448 27.7895C25.448 27.7894 25.448 27.7892 25.448 27.7891C25.448 27.789 25.448 27.7889 25.448 27.7887C25.448 27.7886 25.448 27.7885 25.448 27.7884C25.448 27.7882 25.448 27.7881 25.448 27.788C25.448 27.7879 25.448 27.7878 25.448 27.7876C25.448 27.7875 25.448 27.7874 25.448 27.7873C25.448 27.7871 25.448 27.787 25.448 27.7869C25.448 27.7867 25.448 27.7866 25.448 27.7865C25.448 27.7864 25.448 27.7862 25.448 27.7861C25.448 27.786 25.448 27.7859 25.448 27.7857C25.448 27.7856 25.448 27.7855 25.448 27.7854C25.448 27.7852 25.448 27.7851 25.448 27.785C25.448 27.7849 25.448 27.7847 25.448 27.7846C25.448 27.7845 25.448 27.7844 25.448 27.7843C25.448 27.7841 25.448 27.784 25.448 27.7839C25.448 27.7838 25.448 27.7836 25.448 27.7835C25.448 27.7834 25.448 27.7832 25.448 27.7831C25.448 27.783 25.448 27.7829 25.448 27.7827C25.448 27.7826 25.448 27.7825 25.448 27.7824C25.448 27.7822 25.448 27.7821 25.448 27.782C25.448 27.7819 25.448 27.7817 25.448 27.7816C25.448 27.7815 25.448 27.7814 25.448 27.7812C25.448 27.7811 25.448 27.781 25.448 27.7809C25.448 27.7808 25.448 27.7806 25.448 27.7805C25.448 27.7804 25.448 27.7803 25.448 27.7801C25.448 27.78 25.448 27.7799 25.448 27.7797C25.448 27.7796 25.448 27.7795 25.448 27.7794C25.448 27.7792 25.448 27.7791 25.448 27.779C25.448 27.7789 25.448 27.7787 25.448 27.7786C25.448 27.7785 25.448 27.7784 25.448 27.7782C25.448 27.7781 25.448 27.778 25.448 27.7779C25.448 27.7778 25.448 27.7776 25.448 27.7775C25.448 27.7774 25.448 27.7773 25.448 27.7771C25.448 27.777 25.448 27.7769 25.448 27.7768C25.448 27.7766 25.448 27.7765 25.448 27.7764C25.448 27.7762 25.448 27.7761 25.448 27.776C25.448 27.7759 25.448 27.7757 25.448 27.7756C25.448 27.7755 25.448 27.7754 25.448 27.7752C25.448 27.7751 25.448 27.775 25.448 27.7749C25.448 27.7747 25.448 27.7746 25.448 27.7745C25.448 27.7744 25.448 27.7743 25.448 27.7741C25.448 27.774 25.448 27.7739 25.448 27.7738C25.448 27.7736 25.448 27.7735 25.448 27.7734C25.448 27.7733 25.448 27.7731 25.448 27.773C25.448 27.7729 25.448 27.7727 25.448 27.7726C25.448 27.7725 25.448 27.7724 25.448 27.7722C25.448 27.7721 25.448 27.772 25.448 27.7719C25.448 27.7717 25.448 27.7716 25.448 27.7715C25.448 27.7714 25.448 27.7712 25.448 27.7711C25.448 27.771 25.448 27.7709 25.448 27.7708C25.448 27.7706 25.448 27.7705 25.448 27.7704C25.448 27.7703 25.448 27.7701 25.448 27.77C25.448 27.7699 25.448 27.7698 25.448 27.7696C25.448 27.7695 25.448 27.7694 25.448 27.7692C25.448 27.7691 25.448 27.769 25.448 27.7689C25.448 27.7687 25.448 27.7686 25.448 27.7685C25.448 27.7684 25.448 27.7682 25.448 27.7681C25.448 27.768 25.448 27.7679 25.448 27.7677C25.448 27.7676 25.448 27.7675 25.448 27.7674C25.448 27.7673 25.448 27.7671 25.448 27.767C25.448 27.7669 25.448 27.7668 25.448 27.7666C25.448 27.7665 25.448 27.7664 25.448 27.7663C25.448 27.7661 25.448 27.766 25.448 27.7659C25.448 27.7657 25.448 27.7656 25.448 27.7655C25.448 27.7654 25.448 27.7652 25.448 27.7651C25.448 27.765 25.448 27.7649 25.448 27.7647C25.448 27.7646 25.448 27.7645 25.448 27.7644C25.448 27.7642 25.448 27.7641 25.448 27.764C25.448 27.7639 25.448 27.7638 25.448 27.7636C25.448 27.7635 25.448 27.7634 25.448 27.7633C25.448 27.7631 25.448 27.763 25.448 27.7629C25.448 27.7628 25.448 27.7626 25.448 27.7625C25.448 27.7624 25.448 27.7622 25.448 27.7621C25.448 27.762 25.448 27.7619 25.448 27.7617C25.448 27.7616 25.448 27.7615 25.448 27.7614C25.448 27.7612 25.448 27.7611 25.448 27.761C25.448 27.7609 25.448 27.7607 25.448 27.7606C25.448 27.7605 25.448 27.7604 25.448 27.7603C25.448 27.7601 25.448 27.76 25.448 27.7599C25.448 27.7598 25.448 27.7596 25.448 27.7595C25.448 27.7594 25.448 27.7593 25.448 27.7591C25.448 27.759 25.448 27.7589 25.448 27.7587C25.448 27.7586 25.448 27.7585 25.448 27.7584C25.448 27.7582 25.448 27.7581 25.448 27.758C25.448 27.7579 25.448 27.7577 25.448 27.7576C25.448 27.7575 25.448 27.7574 25.448 27.7572C25.448 27.7571 25.448 27.757 25.448 27.7569C25.448 27.7568 25.448 27.7566 25.448 27.7565C25.448 27.7564 25.448 27.7563 25.448 27.7561C25.448 27.756 25.448 27.7559 25.448 27.7558C25.448 27.7556 25.448 27.7555 25.448 27.7554C25.448 27.7552 25.448 27.7551 25.448 27.755C25.448 27.7549 25.448 27.7547 25.448 27.7546C25.448 27.7545 25.448 27.7544 25.448 27.7542C25.448 27.7541 25.448 27.754 25.448 27.7539C25.448 27.7537 25.448 27.7536 25.448 27.7535C25.448 27.7534 25.448 27.7533 25.448 27.7531C25.448 27.753 25.448 27.7529 25.448 27.7528C25.448 27.7526 25.448 27.7525 25.448 27.7524C25.448 27.7523 25.448 27.7521 25.448 27.752H23.448C23.448 27.7521 23.448 27.7523 23.448 27.7524C23.448 27.7525 23.448 27.7526 23.448 27.7528C23.448 27.7529 23.448 27.753 23.448 27.7531C23.448 27.7533 23.448 27.7534 23.448 27.7535C23.448 27.7536 23.448 27.7537 23.448 27.7539C23.448 27.754 23.448 27.7541 23.448 27.7542C23.448 27.7544 23.448 27.7545 23.448 27.7546C23.448 27.7547 23.448 27.7549 23.448 27.755C23.448 27.7551 23.448 27.7552 23.448 27.7554C23.448 27.7555 23.448 27.7556 23.448 27.7558C23.448 27.7559 23.448 27.756 23.448 27.7561C23.448 27.7563 23.448 27.7564 23.448 27.7565C23.448 27.7566 23.448 27.7568 23.448 27.7569C23.448 27.757 23.448 27.7571 23.448 27.7572C23.448 27.7574 23.448 27.7575 23.448 27.7576C23.448 27.7577 23.448 27.7579 23.448 27.758C23.448 27.7581 23.448 27.7582 23.448 27.7584C23.448 27.7585 23.448 27.7586 23.448 27.7587C23.448 27.7589 23.448 27.759 23.448 27.7591C23.448 27.7593 23.448 27.7594 23.448 27.7595C23.448 27.7596 23.448 27.7598 23.448 27.7599C23.448 27.76 23.448 27.7601 23.448 27.7603C23.448 27.7604 23.448 27.7605 23.448 27.7606C23.448 27.7607 23.448 27.7609 23.448 27.761C23.448 27.7611 23.448 27.7612 23.448 27.7614C23.448 27.7615 23.448 27.7616 23.448 27.7617C23.448 27.7619 23.448 27.762 23.448 27.7621C23.448 27.7622 23.448 27.7624 23.448 27.7625C23.448 27.7626 23.448 27.7628 23.448 27.7629C23.448 27.763 23.448 27.7631 23.448 27.7633C23.448 27.7634 23.448 27.7635 23.448 27.7636C23.448 27.7638 23.448 27.7639 23.448 27.764C23.448 27.7641 23.448 27.7642 23.448 27.7644C23.448 27.7645 23.448 27.7646 23.448 27.7647C23.448 27.7649 23.448 27.765 23.448 27.7651C23.448 27.7652 23.448 27.7654 23.448 27.7655C23.448 27.7656 23.448 27.7657 23.448 27.7659C23.448 27.766 23.448 27.7661 23.448 27.7663C23.448 27.7664 23.448 27.7665 23.448 27.7666C23.448 27.7668 23.448 27.7669 23.448 27.767C23.448 27.7671 23.448 27.7673 23.448 27.7674C23.448 27.7675 23.448 27.7676 23.448 27.7677C23.448 27.7679 23.448 27.768 23.448 27.7681C23.448 27.7682 23.448 27.7684 23.448 27.7685C23.448 27.7686 23.448 27.7687 23.448 27.7689C23.448 27.769 23.448 27.7691 23.448 27.7692C23.448 27.7694 23.448 27.7695 23.448 27.7696C23.448 27.7698 23.448 27.7699 23.448 27.77C23.448 27.7701 23.448 27.7703 23.448 27.7704C23.448 27.7705 23.448 27.7706 23.448 27.7708C23.448 27.7709 23.448 27.771 23.448 27.7711C23.448 27.7712 23.448 27.7714 23.448 27.7715C23.448 27.7716 23.448 27.7717 23.448 27.7719C23.448 27.772 23.448 27.7721 23.448 27.7722C23.448 27.7724 23.448 27.7725 23.448 27.7726C23.448 27.7727 23.448 27.7729 23.448 27.773C23.448 27.7731 23.448 27.7733 23.448 27.7734C23.448 27.7735 23.448 27.7736 23.448 27.7738C23.448 27.7739 23.448 27.774 23.448 27.7741C23.448 27.7743 23.448 27.7744 23.448 27.7745C23.448 27.7746 23.448 27.7747 23.448 27.7749C23.448 27.775 23.448 27.7751 23.448 27.7752C23.448 27.7754 23.448 27.7755 23.448 27.7756C23.448 27.7757 23.448 27.7759 23.448 27.776C23.448 27.7761 23.448 27.7762 23.448 27.7764C23.448 27.7765 23.448 27.7766 23.448 27.7768C23.448 27.7769 23.448 27.777 23.448 27.7771C23.448 27.7773 23.448 27.7774 23.448 27.7775C23.448 27.7776 23.448 27.7778 23.448 27.7779C23.448 27.778 23.448 27.7781 23.448 27.7782C23.448 27.7784 23.448 27.7785 23.448 27.7786C23.448 27.7787 23.448 27.7789 23.448 27.779C23.448 27.7791 23.448 27.7792 23.448 27.7794C23.448 27.7795 23.448 27.7796 23.448 27.7797C23.448 27.7799 23.448 27.78 23.448 27.7801C23.448 27.7803 23.448 27.7804 23.448 27.7805C23.448 27.7806 23.448 27.7808 23.448 27.7809C23.448 27.781 23.448 27.7811 23.448 27.7812C23.448 27.7814 23.448 27.7815 23.448 27.7816C23.448 27.7817 23.448 27.7819 23.448 27.782C23.448 27.7821 23.448 27.7822 23.448 27.7824C23.448 27.7825 23.448 27.7826 23.448 27.7827C23.448 27.7829 23.448 27.783 23.448 27.7831C23.448 27.7832 23.448 27.7834 23.448 27.7835C23.448 27.7836 23.448 27.7838 23.448 27.7839C23.448 27.784 23.448 27.7841 23.448 27.7843C23.448 27.7844 23.448 27.7845 23.448 27.7846C23.448 27.7847 23.448 27.7849 23.448 27.785C23.448 27.7851 23.448 27.7852 23.448 27.7854C23.448 27.7855 23.448 27.7856 23.448 27.7857C23.448 27.7859 23.448 27.786 23.448 27.7861C23.448 27.7862 23.448 27.7864 23.448 27.7865C23.448 27.7866 23.448 27.7867 23.448 27.7869C23.448 27.787 23.448 27.7871 23.448 27.7873C23.448 27.7874 23.448 27.7875 23.448 27.7876C23.448 27.7878 23.448 27.7879 23.448 27.788C23.448 27.7881 23.448 27.7882 23.448 27.7884C23.448 27.7885 23.448 27.7886 23.448 27.7887C23.448 27.7889 23.448 27.789 23.448 27.7891C23.448 27.7892 23.448 27.7894 23.448 27.7895C23.448 27.7896 23.448 27.7897 23.448 27.7899C23.448 27.79 23.448 27.7901 23.448 27.7902C23.448 27.7904 23.448 27.7905 23.448 27.7906C23.448 27.7908 23.448 27.7909 23.448 27.791C23.448 27.7911 23.448 27.7913 23.448 27.7914C23.448 27.7915 23.448 27.7916 23.448 27.7917C23.448 27.7919 23.448 27.792 23.448 27.7921C23.448 27.7922 23.448 27.7924 23.448 27.7925C23.448 27.7926 23.448 27.7927 23.448 27.7929C23.448 27.793 23.448 27.7931 23.448 27.7932C23.448 27.7934 23.448 27.7935 23.448 27.7936C23.448 27.7937 23.448 27.7939 23.448 27.794C23.448 27.7941 23.448 27.7943 23.448 27.7944C23.448 27.7945 23.448 27.7946 23.448 27.7948C23.448 27.7949 23.448 27.795 23.448 27.7951C23.448 27.7952 23.448 27.7954 23.448 27.7955C23.448 27.7956 23.448 27.7957 23.448 27.7959C23.448 27.796 23.448 27.7961 23.448 27.7962C23.448 27.7964 23.448 27.7965 23.448 27.7966C23.448 27.7967 23.448 27.7969 23.448 27.797C23.448 27.7971 23.448 27.7972 23.448 27.7974C23.448 27.7975 23.448 27.7976 23.448 27.7978C23.448 27.7979 23.448 27.798 23.448 27.7981C23.448 27.7983 23.448 27.7984 23.448 27.7985C23.448 27.7986 23.448 27.7987 23.448 27.7989C23.448 27.799 23.448 27.7991 23.448 27.7992C23.448 27.7994 23.448 27.7995 23.448 27.7996C23.448 27.7997 23.448 27.7999 23.448 27.8C23.448 27.8001 23.448 27.8002 23.448 27.8004C23.448 27.8005 23.448 27.8006 23.448 27.8007C23.448 27.8009 23.448 27.801 23.448 27.8011C23.448 27.8013 23.448 27.8014 23.448 27.8015C23.448 27.8016 23.448 27.8018 23.448 27.8019C23.448 27.802 23.448 27.8021 23.448 27.8022C23.448 27.8024 23.448 27.8025 23.448 27.8026C23.448 27.8027 23.448 27.8029 23.448 27.803C23.448 27.8031 23.448 27.8032 23.448 27.8034C23.448 27.8035 23.448 27.8036 23.448 27.8037C23.448 27.8039 23.448 27.804 23.448 27.8041C23.448 27.8042 23.448 27.8044 23.448 27.8045C23.448 27.8046 23.448 27.8048 23.448 27.8049C23.448 27.805 23.448 27.8051 23.448 27.8053C23.448 27.8054 23.448 27.8055 23.448 27.8056C23.448 27.8057 23.448 27.8059 23.448 27.806C23.448 27.8061 23.448 27.8062 23.448 27.8064C23.448 27.8065 23.448 27.8066 23.448 27.8067C23.448 27.8069 23.448 27.807 23.448 27.8071C23.448 27.8072 23.448 27.8074 23.448 27.8075C23.448 27.8076 23.448 27.8077 23.448 27.8079C23.448 27.808 23.448 27.8081 23.448 27.8083C23.448 27.8084 23.448 27.8085 23.448 27.8086C23.448 27.8088 23.448 27.8089 23.448 27.809C23.448 27.8091 23.448 27.8092 23.448 27.8094C23.448 27.8095 23.448 27.8096 23.448 27.8097C23.448 27.8099 23.448 27.81 23.448 27.8101C23.448 27.8102 23.448 27.8104 23.448 27.8105C23.448 27.8106 23.448 27.8107 23.448 27.8109C23.448 27.811 23.448 27.8111 23.448 27.8112C23.448 27.8114 23.448 27.8115 23.448 27.8116C23.448 27.8118 23.448 27.8119 23.448 27.812C23.448 27.8121 23.448 27.8123 23.448 27.8124C23.448 27.8125 23.448 27.8126 23.448 27.8127C23.448 27.8129 23.448 27.813 23.448 27.8131C23.448 27.8132 23.448 27.8134 23.448 27.8135C23.448 27.8136 23.448 27.8137 23.448 27.8139C23.448 27.814 23.448 27.8141 23.448 27.8142C23.448 27.8144 23.448 27.8145 23.448 27.8146C23.448 27.8147 23.448 27.8149 23.448 27.815C23.448 27.8151 23.448 27.8153 23.448 27.8154C23.448 27.8155 23.448 27.8156 23.448 27.8158C23.448 27.8159 23.448 27.816 23.448 27.8161C23.448 27.8162 23.448 27.8164 23.448 27.8165C23.448 27.8166 23.448 27.8167 23.448 27.8169C23.448 27.817 23.448 27.8171 23.448 27.8172C23.448 27.8174 23.448 27.8175 23.448 27.8176C23.448 27.8177 23.448 27.8179 23.448 27.818C23.448 27.8181 23.448 27.8182 23.448 27.8184C23.448 27.8185 23.448 27.8186 23.448 27.8188C23.448 27.8189 23.448 27.819 23.448 27.8191C23.448 27.8193 23.448 27.8194 23.448 27.8195C23.448 27.8196 23.448 27.8197 23.448 27.8199C23.448 27.82 23.448 27.8201 23.448 27.8202C23.448 27.8204 23.448 27.8205 23.448 27.8206C23.448 27.8207 23.448 27.8209 23.448 27.821C23.448 27.8211 23.448 27.8212 23.448 27.8214C23.448 27.8215 23.448 27.8216 23.448 27.8217C23.448 27.8219 23.448 27.822 23.448 27.8221C23.448 27.8223 23.448 27.8224 23.448 27.8225C23.448 27.8226 23.448 27.8228 23.448 27.8229C23.448 27.823 23.448 27.8231 23.448 27.8232C23.448 27.8234 23.448 27.8235 23.448 27.8236C23.448 27.8237 23.448 27.8239 23.448 27.824C23.448 27.8241 23.448 27.8242 23.448 27.8244C23.448 27.8245 23.448 27.8246 23.448 27.8247C23.448 27.8249 23.448 27.825 23.448 27.8251C23.448 27.8252 23.448 27.8254 23.448 27.8255C23.448 27.8256 23.448 27.8258 23.448 27.8259C23.448 27.826 23.448 27.8261 23.448 27.8263C23.448 27.8264 23.448 27.8265 23.448 27.8266C23.448 27.8267 23.448 27.8269 23.448 27.827C23.448 27.8271 23.448 27.8272 23.448 27.8274C23.448 27.8275 23.448 27.8276 23.448 27.8277C23.448 27.8279 23.448 27.828 23.448 27.8281C23.448 27.8282 23.448 27.8284 23.448 27.8285C23.448 27.8286 23.448 27.8287 23.448 27.8289C23.448 27.829 23.448 27.8291 23.448 27.8293C23.448 27.8294 23.448 27.8295 23.448 27.8296C23.448 27.8298 23.448 27.8299 23.448 27.83C23.448 27.8301 23.448 27.8302 23.448 27.8304C23.448 27.8305 23.448 27.8306 23.448 27.8307C23.448 27.8309 23.448 27.831 23.448 27.8311C23.448 27.8312 23.448 27.8314 23.448 27.8315C23.448 27.8316 23.448 27.8317 23.448 27.8319C23.448 27.832 23.448 27.8321 23.448 27.8322C23.448 27.8324 23.448 27.8325 23.448 27.8326C23.448 27.8328 23.448 27.8329 23.448 27.833C23.448 27.8331 23.448 27.8333 23.448 27.8334C23.448 27.8335 23.448 27.8336 23.448 27.8337C23.448 27.8339 23.448 27.834 23.448 27.8341C23.448 27.8342 23.448 27.8344 23.448 27.8345C23.448 27.8346 23.448 27.8347 23.448 27.8349C23.448 27.835 23.448 27.8351 23.448 27.8352C23.448 27.8354 23.448 27.8355 23.448 27.8356C23.448 27.8357 23.448 27.8359 23.448 27.836C23.448 27.8361 23.448 27.8363 23.448 27.8364C23.448 27.8365 23.448 27.8366 23.448 27.8368C23.448 27.8369 23.448 27.837 23.448 27.8371C23.448 27.8372 23.448 27.8374 23.448 27.8375C23.448 27.8376 23.448 27.8377 23.448 27.8379C23.448 27.838 23.448 27.8381 23.448 27.8382C23.448 27.8384 23.448 27.8385 23.448 27.8386C23.448 27.8387 23.448 27.8389 23.448 27.839C23.448 27.8391 23.448 27.8392 23.448 27.8394C23.448 27.8395 23.448 27.8396 23.448 27.8398C23.448 27.8399 23.448 27.84 23.448 27.8401C23.448 27.8403 23.448 27.8404 23.448 27.8405C23.448 27.8406 23.448 27.8407 23.448 27.8409C23.448 27.841 23.448 27.8411 23.448 27.8412C23.448 27.8414 23.448 27.8415 23.448 27.8416C23.448 27.8417 23.448 27.8419 23.448 27.842C23.448 27.8421 23.448 27.8422 23.448 27.8424C23.448 27.8425 23.448 27.8426 23.448 27.8427C23.448 27.8429 23.448 27.843 23.448 27.8431C23.448 27.8433 23.448 27.8434 23.448 27.8435C23.448 27.8436 23.448 27.8438 23.448 27.8439C23.448 27.844 23.448 27.8441 23.448 27.8442C23.448 27.8444 23.448 27.8445 23.448 27.8446C23.448 27.8447 23.448 27.8449 23.448 27.845C23.448 27.8451 23.448 27.8452 23.448 27.8454C23.448 27.8455 23.448 27.8456 23.448 27.8457C23.448 27.8459 23.448 27.846 23.448 27.8461C23.448 27.8462 23.448 27.8464 23.448 27.8465C23.448 27.8466 23.448 27.8468 23.448 27.8469C23.448 27.847 23.448 27.8471 23.448 27.8472C23.448 27.8474 23.448 27.8475 23.448 27.8476C23.448 27.8477 23.448 27.8479 23.448 27.848C23.448 27.8481 23.448 27.8482 23.448 27.8484C23.448 27.8485 23.448 27.8486 23.448 27.8487C23.448 27.8489 23.448 27.849 23.448 27.8491C23.448 27.8492 23.448 27.8494 23.448 27.8495C23.448 27.8496 23.448 27.8498 23.448 27.8499C23.448 27.85 23.448 27.8501 23.448 27.8503C23.448 27.8504 23.448 27.8505 23.448 27.8506C23.448 27.8507 23.448 27.8509 23.448 27.851C23.448 27.8511 23.448 27.8512 23.448 27.8514C23.448 27.8515 23.448 27.8516 23.448 27.8517C23.448 27.8519 23.448 27.852 23.448 27.8521C23.448 27.8522 23.448 27.8524 23.448 27.8525C23.448 27.8526 23.448 27.8527 23.448 27.8529C23.448 27.853 23.448 27.8531 23.448 27.8533C23.448 27.8534 23.448 27.8535 23.448 27.8536C23.448 27.8538 23.448 27.8539 23.448 27.854C23.448 27.8541 23.448 27.8542 23.448 27.8544C23.448 27.8545 23.448 27.8546 23.448 27.8547C23.448 27.8549 23.448 27.855 23.448 27.8551C23.448 27.8552 23.448 27.8554 23.448 27.8555C23.448 27.8556 23.448 27.8557 23.448 27.8559C23.448 27.856 23.448 27.8561 23.448 27.8562C23.448 27.8564 23.448 27.8565 23.448 27.8566C23.448 27.8568 23.448 27.8569 23.448 27.857C23.448 27.8571 23.448 27.8573 23.448 27.8574C23.448 27.8575 23.448 27.8576 23.448 27.8577C23.448 27.8579 23.448 27.858 23.448 27.8581C23.448 27.8582 23.448 27.8584 23.448 27.8585C23.448 27.8586 23.448 27.8587 23.448 27.8589C23.448 27.859 23.448 27.8591 23.448 27.8592C23.448 27.8594 23.448 27.8595 23.448 27.8596C23.448 27.8597 23.448 27.8599 23.448 27.86C23.448 27.8601 23.448 27.8603 23.448 27.8604C23.448 27.8605 23.448 27.8606 23.448 27.8608C23.448 27.8609 23.448 27.861 23.448 27.8611C23.448 27.8612 23.448 27.8614 23.448 27.8615C23.448 27.8616 23.448 27.8617 23.448 27.8619C23.448 27.862 23.448 27.8621 23.448 27.8622C23.448 27.8624 23.448 27.8625 23.448 27.8626C23.448 27.8627 23.448 27.8629 23.448 27.863C23.448 27.8631 23.448 27.8632 23.448 27.8634C23.448 27.8635 23.448 27.8636 23.448 27.8638C23.448 27.8639 23.448 27.864 23.448 27.8641C23.448 27.8643 23.448 27.8644 23.448 27.8645C23.448 27.8646 23.448 27.8647 23.448 27.8649C23.448 27.865 23.448 27.8651 23.448 27.8652C23.448 27.8654 23.448 27.8655 23.448 27.8656C23.448 27.8657 23.448 27.8659 23.448 27.866C23.448 27.8661 23.448 27.8662 23.448 27.8664C23.448 27.8665 23.448 27.8666 23.448 27.8667C23.448 27.8669 23.448 27.867 23.448 27.8671C23.448 27.8673 23.448 27.8674 23.448 27.8675C23.448 27.8676 23.448 27.8678 23.448 27.8679C23.448 27.868 23.448 27.8681 23.448 27.8682C23.448 27.8684 23.448 27.8685 23.448 27.8686C23.448 27.8687 23.448 27.8689 23.448 27.869C23.448 27.8691 23.448 27.8692 23.448 27.8694C23.448 27.8695 23.448 27.8696 23.448 27.8697C23.448 27.8699 23.448 27.87 23.448 27.8701C23.448 27.8702 23.448 27.8704 23.448 27.8705C23.448 27.8706 23.448 27.8708 23.448 27.8709C23.448 27.871 23.448 27.8711 23.448 27.8713C23.448 27.8714 23.448 27.8715 23.448 27.8716C23.448 27.8717 23.448 27.8719 23.448 27.872C23.448 27.8721 23.448 27.8722 23.448 27.8724C23.448 27.8725 23.448 27.8726 23.448 27.8727C23.448 27.8729 23.448 27.873 23.448 27.8731C23.448 27.8732 23.448 27.8734 23.448 27.8735C23.448 27.8736 23.448 27.8737 23.448 27.8739C23.448 27.874 23.448 27.8741 23.448 27.8743C23.448 27.8744 23.448 27.8745 23.448 27.8746C23.448 27.8748 23.448 27.8749 23.448 27.875C23.448 27.8751 23.448 27.8752 23.448 27.8754C23.448 27.8755 23.448 27.8756 23.448 27.8757C23.448 27.8759 23.448 27.876 23.448 27.8761C23.448 27.8762 23.448 27.8764 23.448 27.8765C23.448 27.8766 23.448 27.8767 23.448 27.8769C23.448 27.877 23.448 27.8771 23.448 27.8772C23.448 27.8774 23.448 27.8775 23.448 27.8776C23.448 27.8778 23.448 27.8779 23.448 27.878C23.448 27.8781 23.448 27.8783 23.448 27.8784C23.448 27.8785 23.448 27.8786 23.448 27.8787C23.448 27.8789 23.448 27.879 23.448 27.8791C23.448 27.8792 23.448 27.8794 23.448 27.8795C23.448 27.8796 23.448 27.8797 23.448 27.8799C23.448 27.88 23.448 27.8801 23.448 27.8802C23.448 27.8804 23.448 27.8805 23.448 27.8806C23.448 27.8807 23.448 27.8809 23.448 27.881C23.448 27.8811 23.448 27.8813 23.448 27.8814C23.448 27.8815 23.448 27.8816 23.448 27.8818C23.448 27.8819 23.448 27.882 23.448 27.8821C23.448 27.8822 23.448 27.8824 23.448 27.8825C23.448 27.8826 23.448 27.8827 23.448 27.8829C23.448 27.883 23.448 27.8831 23.448 27.8832C23.448 27.8834 23.448 27.8835 23.448 27.8836C23.448 27.8837 23.448 27.8839 23.448 27.884C23.448 27.8841 23.448 27.8842 23.448 27.8844C23.448 27.8845 23.448 27.8846 23.448 27.8848C23.448 27.8849 23.448 27.885 23.448 27.8851C23.448 27.8853 23.448 27.8854 23.448 27.8855C23.448 27.8856 23.448 27.8857 23.448 27.8859C23.448 27.886 23.448 27.8861 23.448 27.8862C23.448 27.8864 23.448 27.8865 23.448 27.8866C23.448 27.8867 23.448 27.8869 23.448 27.887C23.448 27.8871 23.448 27.8872 23.448 27.8874C23.448 27.8875 23.448 27.8876 23.448 27.8877C23.448 27.8879 23.448 27.888 23.448 27.8881C23.448 27.8883 23.448 27.8884 23.448 27.8885C23.448 27.8886 23.448 27.8888 23.448 27.8889C23.448 27.889 23.448 27.8891 23.448 27.8892C23.448 27.8894 23.448 27.8895 23.448 27.8896C23.448 27.8897 23.448 27.8899 23.448 27.89C23.448 27.8901 23.448 27.8902 23.448 27.8904C23.448 27.8905 23.448 27.8906 23.448 27.8907C23.448 27.8909 23.448 27.891 23.448 27.8911C23.448 27.8912 23.448 27.8914 23.448 27.8915C23.448 27.8916 23.448 27.8918 23.448 27.8919C23.448 27.892 23.448 27.8921 23.448 27.8923C23.448 27.8924 23.448 27.8925 23.448 27.8926C23.448 27.8927 23.448 27.8929 23.448 27.893C23.448 27.8931 23.448 27.8932 23.448 27.8934C23.448 27.8935 23.448 27.8936 23.448 27.8937C23.448 27.8939 23.448 27.894 23.448 27.8941C23.448 27.8942 23.448 27.8944 23.448 27.8945C23.448 27.8946 23.448 27.8947 23.448 27.8949C23.448 27.895 23.448 27.8951 23.448 27.8953C23.448 27.8954 23.448 27.8955 23.448 27.8956C23.448 27.8958 23.448 27.8959 23.448 27.896C23.448 27.8961 23.448 27.8962 23.448 27.8964C23.448 27.8965 23.448 27.8966 23.448 27.8967C23.448 27.8969 23.448 27.897 23.448 27.8971C23.448 27.8972 23.448 27.8974 23.448 27.8975C23.448 27.8976 23.448 27.8977 23.448 27.8979C23.448 27.898 23.448 27.8981 23.448 27.8982C23.448 27.8984 23.448 27.8985 23.448 27.8986C23.448 27.8988 23.448 27.8989 23.448 27.899C23.448 27.8991 23.448 27.8993 23.448 27.8994C23.448 27.8995 23.448 27.8996 23.448 27.8997C23.448 27.8999 23.448 27.9 23.448 27.9001C23.448 27.9002 23.448 27.9004 23.448 27.9005C23.448 27.9006 23.448 27.9007 23.448 27.9009C23.448 27.901 23.448 27.9011 23.448 27.9012C23.448 27.9014 23.448 27.9015 23.448 27.9016C23.448 27.9017 23.448 27.9019 23.448 27.902C23.448 27.9021 23.448 27.9023 23.448 27.9024C23.448 27.9025 23.448 27.9026 23.448 27.9028C23.448 27.9029 23.448 27.903 23.448 27.9031C23.448 27.9032 23.448 27.9034 23.448 27.9035C23.448 27.9036 23.448 27.9037 23.448 27.9039C23.448 27.904 23.448 27.9041 23.448 27.9042C23.448 27.9044 23.448 27.9045 23.448 27.9046C23.448 27.9047 23.448 27.9049 23.448 27.905C23.448 27.9051 23.448 27.9052 23.448 27.9054C23.448 27.9055 23.448 27.9056 23.448 27.9058C23.448 27.9059 23.448 27.906 23.448 27.9061C23.448 27.9062 23.448 27.9064 23.448 27.9065C23.448 27.9066 23.448 27.9067 23.448 27.9069C23.448 27.907 23.448 27.9071 23.448 27.9072C23.448 27.9074 23.448 27.9075 23.448 27.9076C23.448 27.9077 23.448 27.9079 23.448 27.908C23.448 27.9081 23.448 27.9082 23.448 27.9084C23.448 27.9085 23.448 27.9086 23.448 27.9087C23.448 27.9089 23.448 27.909 23.448 27.9091C23.448 27.9093 23.448 27.9094 23.448 27.9095C23.448 27.9096 23.448 27.9097 23.448 27.9099C23.448 27.91 23.448 27.9101 23.448 27.9102C23.448 27.9104 23.448 27.9105 23.448 27.9106C23.448 27.9107 23.448 27.9109 23.448 27.911C23.448 27.9111 23.448 27.9112 23.448 27.9114C23.448 27.9115 23.448 27.9116 23.448 27.9117C23.448 27.9119 23.448 27.912 23.448 27.9121C23.448 27.9122 23.448 27.9124 23.448 27.9125C23.448 27.9126 23.448 27.9128 23.448 27.9129C23.448 27.913 23.448 27.9131 23.448 27.9132C23.448 27.9134 23.448 27.9135 23.448 27.9136C23.448 27.9137 23.448 27.9139 23.448 27.914C23.448 27.9141 23.448 27.9142 23.448 27.9144C23.448 27.9145 23.448 27.9146 23.448 27.9147C23.448 27.9149 23.448 27.915 23.448 27.9151C23.448 27.9152 23.448 27.9154 23.448 27.9155C23.448 27.9156 23.448 27.9157 23.448 27.9159C23.448 27.916 23.448 27.9161 23.448 27.9163C23.448 27.9164 23.448 27.9165 23.448 27.9166C23.448 27.9167 23.448 27.9169 23.448 27.917C23.448 27.9171 23.448 27.9172 23.448 27.9174C23.448 27.9175 23.448 27.9176 23.448 27.9177C23.448 27.9179 23.448 27.918 23.448 27.9181C23.448 27.9182 23.448 27.9184 23.448 27.9185C23.448 27.9186 23.448 27.9187 23.448 27.9189C23.448 27.919 23.448 27.9191 23.448 27.9192C23.448 27.9194 23.448 27.9195 23.448 27.9196C23.448 27.9198 23.448 27.9199 23.448 27.92C23.448 27.9201 23.448 27.9202 23.448 27.9204C23.448 27.9205 23.448 27.9206 23.448 27.9207C23.448 27.9209 23.448 27.921 23.448 27.9211C23.448 27.9212 23.448 27.9214 23.448 27.9215C23.448 27.9216 23.448 27.9217 23.448 27.9219C23.448 27.922 23.448 27.9221 23.448 27.9222C23.448 27.9224 23.448 27.9225 23.448 27.9226C23.448 27.9227 23.448 27.9229 23.448 27.923C23.448 27.9231 23.448 27.9233 23.448 27.9234C23.448 27.9235 23.448 27.9236 23.448 27.9237C23.448 27.9239 23.448 27.924 23.448 27.9241C23.448 27.9242 23.448 27.9244 23.448 27.9245C23.448 27.9246 23.448 27.9247 23.448 27.9249C23.448 27.925 23.448 27.9251 23.448 27.9252C23.448 27.9254 23.448 27.9255 23.448 27.9256C23.448 27.9257 23.448 27.9259 23.448 27.926C23.448 27.9261 23.448 27.9262 23.448 27.9264C23.448 27.9265 23.448 27.9266 23.448 27.9268C23.448 27.9269 23.448 27.927 23.448 27.9271C23.448 27.9272 23.448 27.9274 23.448 27.9275C23.448 27.9276 23.448 27.9277 23.448 27.9279C23.448 27.928 23.448 27.9281 23.448 27.9282C23.448 27.9284 23.448 27.9285 23.448 27.9286C23.448 27.9287 23.448 27.9289 23.448 27.929C23.448 27.9291 23.448 27.9292 23.448 27.9294C23.448 27.9295 23.448 27.9296 23.448 27.9297C23.448 27.9299 23.448 27.93 23.448 27.9301C23.448 27.9303 23.448 27.9304 23.448 27.9305C23.448 27.9306 23.448 27.9307 23.448 27.9309C23.448 27.931 23.448 27.9311 23.448 27.9312C23.448 27.9314 23.448 27.9315 23.448 27.9316C23.448 27.9317 23.448 27.9319 23.448 27.932C23.448 27.9321 23.448 27.9322 23.448 27.9324C23.448 27.9325 23.448 27.9326 23.448 27.9327C23.448 27.9329 23.448 27.933 23.448 27.9331C23.448 27.9332 23.448 27.9334 23.448 27.9335C23.448 27.9336 23.448 27.9338 23.448 27.9339C23.448 27.934 23.448 27.9341 23.448 27.9342C23.448 27.9344 23.448 27.9345 23.448 27.9346C23.448 27.9347 23.448 27.9349 23.448 27.935C23.448 27.9351 23.448 27.9352 23.448 27.9354C23.448 27.9355 23.448 27.9356 23.448 27.9357C23.448 27.9359 23.448 27.936 23.448 27.9361C23.448 27.9362 23.448 27.9364 23.448 27.9365C23.448 27.9366 23.448 27.9367 23.448 27.9369C23.448 27.937 23.448 27.9371 23.448 27.9373C23.448 27.9374 23.448 27.9375 23.448 27.9376C23.448 27.9377 23.448 27.9379 23.448 27.938C23.448 27.9381 23.448 27.9382 23.448 27.9384C23.448 27.9385 23.448 27.9386 23.448 27.9387C23.448 27.9389 23.448 27.939 23.448 27.9391C23.448 27.9392 23.448 27.9394 23.448 27.9395C23.448 27.9396 23.448 27.9397 23.448 27.9399C23.448 27.94 23.448 27.9401 23.448 27.9402C23.448 27.9404 23.448 27.9405 23.448 27.9406C23.448 27.9408 23.448 27.9409 23.448 27.941C23.448 27.9411 23.448 27.9412 23.448 27.9414C23.448 27.9415 23.448 27.9416 23.448 27.9417C23.448 27.9419 23.448 27.942 23.448 27.9421C23.448 27.9422 23.448 27.9424 23.448 27.9425C23.448 27.9426 23.448 27.9427 23.448 27.9429C23.448 27.943 23.448 27.9431 23.448 27.9432C23.448 27.9434 23.448 27.9435 23.448 27.9436C23.448 27.9437 23.448 27.9439 23.448 27.944H25.448ZM25.448 27.752C25.448 27.4484 25.5182 27.229 25.6277 27.0569L23.9403 25.9831C23.6019 26.515 23.448 27.1169 23.448 27.752H25.448ZM25.6277 27.0569C25.7936 26.7961 26.0075 26.5516 26.2769 26.3243L24.9871 24.7957C24.5738 25.1444 24.2224 25.5399 23.9403 25.9831L25.6277 27.0569ZM26.2905 26.3126C26.5991 26.0426 26.9339 25.7851 27.2959 25.5406L26.1761 23.8834C25.7488 24.1722 25.3476 24.4801 24.9735 24.8074L26.2905 26.3126ZM27.3109 25.5302C27.7378 25.2302 28.1382 24.9113 28.5115 24.573L27.1685 23.091C26.8591 23.3714 26.5235 23.6391 26.1611 23.8938L27.3109 25.5302ZM28.5239 24.5615C28.9321 24.1789 29.2766 23.7517 29.5518 23.2799L27.8242 22.2721C27.6514 22.5683 27.4306 22.8451 27.1561 23.1025L28.5239 24.5615ZM29.5577 23.2696C29.881 22.7 30.024 22.0599 30.024 21.384H28.024C28.024 21.7748 27.943 22.0627 27.8183 22.2824L29.5577 23.2696ZM30.024 21.384C30.024 20.4971 29.7155 19.7003 29.0425 19.1114L27.7255 20.6166C27.9058 20.7743 28.024 20.9909 28.024 21.384H30.024ZM29.0623 19.1292C28.4115 18.5284 27.5657 18.288 26.656 18.288V20.288C27.2183 20.288 27.5245 20.4316 27.7057 20.5988L29.0623 19.1292ZM26.656 18.288C26.0286 18.288 25.4483 18.3523 24.9398 18.5076L25.5242 20.4204C25.7837 20.3411 26.1527 20.288 26.656 20.288V18.288ZM24.9322 18.51C24.5124 18.6419 24.1263 18.7981 23.7819 18.9835L24.7301 20.7445C24.9403 20.6313 25.2049 20.5207 25.5318 20.418L24.9322 18.51ZM23.7946 18.9768C23.5181 19.1206 23.2697 19.2559 23.051 19.3826L24.053 21.1134C24.2396 21.0054 24.4605 20.8848 24.7174 20.7512L23.7946 18.9768ZM23.051 19.3826C22.9766 19.4256 22.9449 19.424 22.944 19.424V21.424C23.3484 21.424 23.7221 21.305 24.053 21.1134L23.051 19.3826ZM22.944 19.424C22.9011 19.424 22.8749 19.4194 22.8615 19.4161C22.8489 19.413 22.8446 19.4103 22.8445 19.4103C22.8444 19.4102 22.8408 19.4084 22.8332 19.4004C22.825 19.3918 22.8095 19.3733 22.7897 19.3384L21.0503 20.3256C21.4543 21.0374 22.1302 21.424 22.944 21.424V19.424ZM22.7581 19.2865L21.4461 17.2705L19.7699 18.3615L21.0819 20.3775L22.7581 19.2865ZM24.552 36.488C24.552 36.2273 24.5984 36.0024 24.6822 35.8027L22.8378 35.0293C22.6442 35.4909 22.552 35.9807 22.552 36.488H24.552ZM24.6714 35.8276C24.7733 35.6019 24.903 35.4152 25.0591 35.2591L23.6449 33.8449C23.3103 34.1795 23.0454 34.5688 22.8486 35.0044L24.6714 35.8276ZM25.0439 35.274C25.205 35.1196 25.3955 34.9954 25.6244 34.9025L24.8716 33.0495C24.4178 33.2339 24.011 33.4938 23.6601 33.83L25.0439 35.274ZM25.6488 34.8922C25.853 34.8028 26.0884 34.752 26.368 34.752V32.752C25.837 32.752 25.3257 32.8505 24.8472 33.0598L25.6488 34.8922ZM26.368 34.752C26.633 34.752 26.8637 34.8014 27.0712 34.8922L27.8728 33.0598C27.3977 32.852 26.8923 32.752 26.368 32.752V34.752ZM27.0956 34.9025C27.3245 34.9954 27.515 35.1196 27.6761 35.274L29.0599 33.83C28.709 33.4938 28.3022 33.2339 27.8484 33.0495L27.0956 34.9025ZM27.6761 35.274C27.832 35.4234 27.9515 35.5969 28.0378 35.8027L29.8822 35.0293C29.6912 34.5737 29.416 34.1712 29.0599 33.83L27.6761 35.274ZM28.0486 35.8276C28.1362 36.0214 28.184 36.2375 28.184 36.488H30.184C30.184 35.9705 30.0825 35.4719 29.8714 35.0044L28.0486 35.8276ZM28.184 36.488C28.184 36.7384 28.1362 36.9642 28.0438 37.1752L29.8762 37.9768C30.0825 37.5052 30.184 37.0056 30.184 36.488H28.184ZM28.0378 37.1893C27.9515 37.3951 27.832 37.5686 27.6761 37.718L29.0599 39.162C29.416 38.8208 29.6912 38.4183 29.8822 37.9627L28.0378 37.1893ZM27.6761 37.718C27.515 37.8724 27.3245 37.9966 27.0956 38.0895L27.8484 39.9425C28.3022 39.7581 28.709 39.4982 29.0599 39.162L27.6761 37.718ZM27.0956 38.0895C26.8821 38.1763 26.6429 38.224 26.368 38.224V40.224C26.8824 40.224 27.3792 40.1331 27.8484 39.9425L27.0956 38.0895ZM26.368 38.224C26.0787 38.224 25.8347 38.175 25.6244 38.0895L24.8716 39.9425C25.3439 40.1343 25.8466 40.224 26.368 40.224V38.224ZM25.6244 38.0895C25.3955 37.9966 25.205 37.8724 25.0439 37.718L23.6601 39.162C24.011 39.4982 24.4178 39.7581 24.8716 39.9425L25.6244 38.0895ZM25.0591 37.7329C24.903 37.5768 24.7733 37.3902 24.6714 37.1644L22.8486 37.9876C23.0454 38.4232 23.3103 38.8125 23.6449 39.1471L25.0591 37.7329ZM24.6865 37.1996C24.5984 36.9829 24.552 36.7485 24.552 36.488H22.552C22.552 36.9955 22.6443 37.4865 22.8335 37.9524L24.6865 37.1996Z" fill="#C86000"/>
</svg>
