<svg width="55" height="55" viewBox="0 0 55 55" fill="none" xmlns="http://www.w3.org/2000/svg">
<circle cx="27.5" cy="27.5" r="25.5" stroke="#C86000" stroke-width="4"/>
<path d="M15 27.8426C15 27.6147 15 27.3868 15 27.1588C15.1474 26.4295 15.6182 25.9181 16.1261 25.4124C19.2229 22.3305 22.3127 19.2407 25.3946 16.1439C25.9053 15.6311 26.4181 15.1481 27.1574 15C27.3853 15 27.6132 15 27.8412 15C28.5712 15.146 29.0812 15.6197 29.5862 16.1268C32.6788 19.2343 35.7785 22.3348 38.8868 25.4266C39.4024 25.9395 39.8711 26.4615 39.9993 27.2073C39.9993 27.4024 39.9993 27.5976 39.9993 27.7934C39.985 27.8305 39.9644 27.8668 39.9573 27.9046C39.7315 29.0377 38.8355 29.7849 37.6852 29.7984C37.567 29.7999 37.4494 29.7984 37.3177 29.7984C37.3177 29.9338 37.3177 30.0306 37.3177 30.1275C37.3169 32.5427 37.3241 34.958 37.312 37.3732C37.3063 38.5185 36.5264 39.5335 35.4352 39.8725C35.2821 39.9202 35.1254 39.958 34.9708 40C33.4736 40 31.9758 40 30.4786 40C30.0463 39.839 29.8932 39.5214 29.896 39.0698C29.9074 37.2087 29.9024 35.3469 29.9003 33.4858C29.8996 32.6553 29.3953 32.1546 28.5613 32.1517C27.8704 32.1496 27.1795 32.1503 26.4886 32.151C25.5855 32.1517 25.099 32.6346 25.0983 33.5321C25.0976 35.3775 25.0912 37.2222 25.1026 39.0677C25.1054 39.5185 24.9551 39.8383 24.5221 40C23.0249 40 21.5271 40 20.0299 40C20.0093 39.9879 19.9893 39.9679 19.9679 39.9651C18.802 39.8205 17.651 38.7372 17.6731 37.1538C17.7051 34.8034 17.6816 32.4516 17.6816 30.1011C17.6816 30.0071 17.6816 29.9124 17.6816 29.7977C17.5114 29.7977 17.3739 29.8034 17.2372 29.797C16.3426 29.7507 15.6766 29.3319 15.2571 28.5442C15.1403 28.3269 15.084 28.0776 15 27.8426Z" fill="#C86000"/>
</svg>
