<svg width="55" height="55" viewBox="0 0 55 55" fill="none" xmlns="http://www.w3.org/2000/svg">
<circle cx="27.5" cy="27.5" r="25.5" stroke="#C86000" stroke-width="4"/>
<path d="M43.5255 20.7175C43.1207 20.4608 42.6589 20.5159 42.1729 20.858C40.2792 22.1917 38.3855 23.5263 36.4935 24.8626C35.5101 25.5574 34.6961 25.4328 34.0202 24.4787C32.4243 22.2285 30.8301 19.9783 29.2324 17.7297C28.5441 16.7605 27.4643 16.7564 26.7805 17.7197C25.1774 19.9774 23.5761 22.2369 21.973 24.4955C21.3168 25.4203 20.4876 25.5516 19.5479 24.8876C17.6131 23.5204 15.6757 22.1541 13.7347 20.7927C13.3183 20.5009 12.8422 20.4783 12.4633 20.7267C12.055 20.9951 11.9462 21.3697 12.0229 21.8263C12.3536 23.7922 12.671 25.7606 12.9938 27.7274C13.296 29.5712 13.6072 31.4134 13.8916 33.2597C13.9023 33.3292 13.9175 33.3852 13.938 33.4303C13.9567 34.3527 13.9416 35.2767 13.9451 36.1999C13.9496 37.3346 14.5523 37.9994 15.5776 37.9994C23.8596 38.0002 32.1407 38.0002 40.4227 37.9994C41.4516 37.9994 42.0588 37.3379 42.0642 36.2099C42.0686 35.2876 42.0535 34.3644 42.0713 33.442C42.0865 33.4044 42.0981 33.3584 42.107 33.3024C42.279 32.1468 42.4868 30.9953 42.6749 29.8422C43.1064 27.1947 43.5273 24.5456 43.9722 21.9007C44.0515 21.4082 43.9784 21.0043 43.5255 20.7175Z" fill="#C86000"/>
</svg>
