<svg width="93" height="103" viewBox="0 0 93 103" fill="none" xmlns="http://www.w3.org/2000/svg">
<path d="M92.9994 51.8951C92.9393 57.7721 92.2175 63.6371 90.6055 69.502C90.1724 70.9502 89.6912 72.3983 89.2221 73.8706C88.6927 75.3187 88.0672 76.7306 87.4657 78.1908C86.768 79.5907 86.0101 80.9664 85.2642 82.3783C84.4101 83.7058 83.5319 85.0453 82.6177 86.3849C78.7681 91.5378 73.5713 95.8943 67.5323 98.6216C61.5174 101.361 54.7687 102.556 48.2365 102.097C41.6802 101.651 35.3646 99.4784 29.8669 96.389C24.3453 93.2514 19.5815 89.2328 15.4673 84.7798C7.26293 75.8497 1.6811 64.5301 0.261578 51.8951C-0.388032 45.6199 0.141281 39.0067 2.19838 32.7677C4.23142 26.5166 7.7802 20.7361 12.2794 15.8366C16.7905 10.9371 22.3122 6.85817 28.4956 4.09464C34.6548 1.29492 41.4877 -0.0808084 48.2365 0.00366609C54.9852 0.136412 61.7339 1.68109 67.7609 4.62562C73.7878 7.57016 78.9366 12.0594 82.762 17.2727C86.5996 22.5101 89.1138 28.3992 90.7017 34.2641C92.3137 40.117 93.0235 46.0181 92.9994 51.8951ZM91.5558 51.8951C91.5198 46.1991 89.9559 40.5514 87.1289 35.7364C84.3139 30.9093 80.2959 27.0114 75.9893 24.0668C71.6585 21.1102 67.0391 19.0466 62.4196 17.5744C57.8002 16.078 53.0243 15.3539 48.2485 15.4625C43.4727 15.559 38.781 16.4641 34.2939 18.1053C29.8309 19.7707 25.5843 22.2446 21.9393 25.515C18.2943 28.7853 15.3109 32.8039 12.941 37.2328C10.5831 41.6737 8.85087 46.6215 8.1772 51.9072C7.53962 57.1687 7.97269 62.7199 9.82528 67.8729C11.6418 73.0258 14.7334 77.7805 18.7634 81.4853C22.7934 85.2022 27.7978 87.7364 32.9225 89.0156C38.0592 90.3552 43.2682 90.4517 48.2485 90.0293C53.2409 89.5466 58.0167 88.4605 62.6482 86.771C67.2676 85.0815 71.8269 82.8852 76.1336 79.8682L79.2854 77.4426C80.2478 76.5375 81.2583 75.6325 82.2327 74.667C83.1109 73.6413 84.0492 72.6276 84.9274 71.5535C85.6853 70.4192 86.5394 69.2969 87.2371 68.0901C90.0521 63.263 91.604 57.5911 91.5558 51.8951Z" fill="#000747"/>
<path d="M60.5 62.3619C57.5 65.8619 49.4 70.7619 41 62.3619" stroke="#000747" stroke-width="4" stroke-linecap="round"/>
<circle cx="37.5" cy="41.5" r="4.5" fill="#000747"/>
<circle cx="67.5" cy="41.5" r="4.5" fill="#000747"/>
</svg>
