<svg width="211" height="252" viewBox="0 0 211 252" fill="none" xmlns="http://www.w3.org/2000/svg">
<g filter="url(#filter0_d_35_237)">
<mask id="mask0_35_237" style="mask-type:alpha" maskUnits="userSpaceOnUse" x="20" y="61" width="171" height="171">
<path d="M96.4241 231.378C143.115 236.16 184.843 202.186 189.625 155.494C194.407 108.803 160.433 67.0753 113.742 62.2932C67.0504 57.5111 25.3229 91.4852 20.5408 138.177C15.7586 184.868 49.7328 226.595 96.4241 231.378Z" fill="white"/>
</mask>
<g mask="url(#mask0_35_237)">
<path d="M573.36 -27.8399H-160.85V872.16H573.36V-27.8399Z" fill="white"/>
<path d="M574.51 873.32H-162V-28.9999H574.51V873.32ZM-161.21 872.53H573.72V-28.2099H-161.21V872.53Z" fill="#8BA2C4" fill-opacity="0.35"/>
<path d="M574.12 846.01H-161.6V846.8H574.12V846.01Z" fill="#8BA2C4" fill-opacity="0.35"/>
<path d="M574.12 819.5H-161.6V820.29H574.12V819.5Z" fill="#8BA2C4" fill-opacity="0.35"/>
<path d="M574.12 792.98H-161.6V793.77H574.12V792.98Z" fill="#8BA2C4" fill-opacity="0.35"/>
<path d="M574.12 766.47H-161.6V767.26H574.12V766.47Z" fill="#8BA2C4" fill-opacity="0.35"/>
<path d="M574.12 739.95H-161.6V740.74H574.12V739.95Z" fill="#8BA2C4" fill-opacity="0.35"/>
<path d="M574.12 713.44H-161.6V714.23H574.12V713.44Z" fill="#8BA2C4" fill-opacity="0.35"/>
<path d="M574.12 686.92H-161.6V687.71H574.12V686.92Z" fill="#8BA2C4" fill-opacity="0.35"/>
<path d="M574.12 660.41H-161.6V661.2H574.12V660.41Z" fill="#8BA2C4" fill-opacity="0.35"/>
<path d="M574.12 633.89H-161.6V634.68H574.12V633.89Z" fill="#8BA2C4" fill-opacity="0.35"/>
<path d="M574.12 607.37H-161.6V608.16H574.12V607.37Z" fill="#8BA2C4" fill-opacity="0.35"/>
<path d="M574.12 580.86H-161.6V581.65H574.12V580.86Z" fill="#8BA2C4" fill-opacity="0.35"/>
<path d="M574.12 554.34H-161.6V555.13H574.12V554.34Z" fill="#8BA2C4" fill-opacity="0.35"/>
<path d="M574.12 527.83H-161.6V528.62H574.12V527.83Z" fill="#8BA2C4" fill-opacity="0.35"/>
<path d="M574.12 501.31H-161.6V502.1H574.12V501.31Z" fill="#8BA2C4" fill-opacity="0.35"/>
<path d="M574.12 474.79H-161.6V475.58H574.12V474.79Z" fill="#8BA2C4" fill-opacity="0.35"/>
<path d="M574.12 448.28H-161.6V449.07H574.12V448.28Z" fill="#8BA2C4" fill-opacity="0.35"/>
<path d="M574.12 421.76H-161.6V422.55H574.12V421.76Z" fill="#8BA2C4" fill-opacity="0.35"/>
<path d="M574.12 395.25H-161.6V396.04H574.12V395.25Z" fill="#8BA2C4" fill-opacity="0.35"/>
<path d="M574.12 368.73H-161.6V369.52H574.12V368.73Z" fill="#8BA2C4" fill-opacity="0.35"/>
<path d="M574.12 342.22H-161.6V343.01H574.12V342.22Z" fill="#8BA2C4" fill-opacity="0.35"/>
<path d="M574.12 315.7H-161.6V316.49H574.12V315.7Z" fill="#8BA2C4" fill-opacity="0.35"/>
<path d="M574.12 289.19H-161.6V289.98H574.12V289.19Z" fill="#8BA2C4" fill-opacity="0.35"/>
<path d="M574.12 262.67H-161.6V263.46H574.12V262.67Z" fill="#8BA2C4" fill-opacity="0.35"/>
<path d="M574.12 236.15H-161.6V236.94H574.12V236.15Z" fill="#8BA2C4" fill-opacity="0.35"/>
<path d="M574.12 209.64H-161.6V210.43H574.12V209.64Z" fill="#8BA2C4" fill-opacity="0.35"/>
<path d="M574.12 183.12H-161.6V183.91H574.12V183.12Z" fill="#8BA2C4" fill-opacity="0.35"/>
<path d="M574.12 156.61H-161.6V157.4H574.12V156.61Z" fill="#8BA2C4" fill-opacity="0.35"/>
<path d="M574.12 130.09H-161.6V130.88H574.12V130.09Z" fill="#8BA2C4" fill-opacity="0.35"/>
<path d="M574.12 103.58H-161.6V104.37H574.12V103.58Z" fill="#8BA2C4" fill-opacity="0.35"/>
<path d="M574.12 77.0601H-161.6V77.8501H574.12V77.0601Z" fill="#8BA2C4" fill-opacity="0.35"/>
<path d="M574.12 50.5501H-161.6V51.3401H574.12V50.5501Z" fill="#8BA2C4" fill-opacity="0.35"/>
<path d="M574.12 24.0301H-161.6V24.8201H574.12V24.0301Z" fill="#8BA2C4" fill-opacity="0.35"/>
<path d="M574.12 -2.48988H-161.6V-1.69988H574.12V-2.48988Z" fill="#8BA2C4" fill-opacity="0.35"/>
<path d="M547.26 -28.6099H546.47V872.92H547.26V-28.6099Z" fill="#8BA2C4" fill-opacity="0.35"/>
<path d="M520.01 -28.6099H519.22V872.92H520.01V-28.6099Z" fill="#8BA2C4" fill-opacity="0.35"/>
<path d="M492.76 -28.6099H491.97V872.92H492.76V-28.6099Z" fill="#8BA2C4" fill-opacity="0.35"/>
<path d="M465.52 -28.6099H464.73V872.92H465.52V-28.6099Z" fill="#8BA2C4" fill-opacity="0.35"/>
<path d="M438.27 -28.6099H437.48V872.92H438.27V-28.6099Z" fill="#8BA2C4" fill-opacity="0.35"/>
<path d="M411.02 -28.6099H410.23V872.92H411.02V-28.6099Z" fill="#8BA2C4" fill-opacity="0.35"/>
<path d="M383.77 -28.6099H382.98V872.92H383.77V-28.6099Z" fill="#8BA2C4" fill-opacity="0.35"/>
<path d="M356.52 -28.6099H355.73V872.92H356.52V-28.6099Z" fill="#8BA2C4" fill-opacity="0.35"/>
<path d="M329.27 -28.6099H328.48V872.92H329.27V-28.6099Z" fill="#8BA2C4" fill-opacity="0.35"/>
<path d="M302.02 -28.6099H301.23V872.92H302.02V-28.6099Z" fill="#8BA2C4" fill-opacity="0.35"/>
<path d="M274.77 -28.6099H273.98V872.92H274.77V-28.6099Z" fill="#8BA2C4" fill-opacity="0.35"/>
<path d="M247.52 -28.6099H246.73V872.92H247.52V-28.6099Z" fill="#8BA2C4" fill-opacity="0.35"/>
<path d="M220.28 -28.6099H219.49V872.92H220.28V-28.6099Z" fill="#8BA2C4" fill-opacity="0.35"/>
<path d="M193.02 -28.6099H192.23V872.92H193.02V-28.6099Z" fill="#8BA2C4" fill-opacity="0.35"/>
<path d="M165.78 -28.6099H164.99V872.92H165.78V-28.6099Z" fill="#8BA2C4" fill-opacity="0.35"/>
<path d="M138.53 -28.6099H137.74V872.92H138.53V-28.6099Z" fill="#8BA2C4" fill-opacity="0.35"/>
<path d="M111.28 -28.6099H110.49V872.92H111.28V-28.6099Z" fill="#8BA2C4" fill-opacity="0.35"/>
<path d="M84.03 -28.6099H83.24V872.92H84.03V-28.6099Z" fill="#8BA2C4" fill-opacity="0.35"/>
<path d="M56.78 -28.6099H55.99V872.92H56.78V-28.6099Z" fill="#8BA2C4" fill-opacity="0.35"/>
<path d="M29.53 -28.6099H28.74V872.92H29.53V-28.6099Z" fill="#8BA2C4" fill-opacity="0.35"/>
<path d="M2.28 -28.6099H1.48999V872.92H2.28V-28.6099Z" fill="#8BA2C4" fill-opacity="0.35"/>
<path d="M-24.96 -28.6099H-25.75V872.92H-24.96V-28.6099Z" fill="#8BA2C4" fill-opacity="0.35"/>
<path d="M-52.22 -28.6099H-53.01V872.92H-52.22V-28.6099Z" fill="#8BA2C4" fill-opacity="0.35"/>
<path d="M-79.46 -28.6099H-80.25V872.92H-79.46V-28.6099Z" fill="#8BA2C4" fill-opacity="0.35"/>
<path d="M-106.71 -28.6099H-107.5V872.92H-106.71V-28.6099Z" fill="#8BA2C4" fill-opacity="0.35"/>
<path d="M-133.96 -28.6099H-134.75V872.92H-133.96V-28.6099Z" fill="#8BA2C4" fill-opacity="0.35"/>
</g>
</g>
<path d="M129.951 126.945C126.166 130.442 121.977 133.515 117.272 136.014C116.093 136.606 114.875 137.173 113.644 137.76C112.397 138.293 111.116 138.747 109.831 139.243C108.523 139.641 107.179 139.983 105.832 140.356C104.465 140.609 103.088 140.852 101.681 141.08C96.0699 141.719 90.1387 141.015 84.7569 138.793C79.3729 136.592 74.537 132.989 70.8854 128.527C67.2126 124.064 64.78 118.716 63.438 113.321C62.1097 107.894 61.7857 102.433 62.1503 97.1055C62.8975 86.4848 66.7512 76.0865 73.9562 67.5748C77.5686 63.3784 82.1141 59.7354 87.3343 57.3004C92.5577 54.8337 98.386 53.6318 104.237 53.5605C110.087 53.4997 116.022 54.576 121.524 56.8744C127.03 59.1308 132.031 62.6766 136.065 67.0492C140.053 71.4492 143.144 76.7046 144.909 82.3351C146.674 87.9657 146.922 93.9623 145.902 99.5525C144.87 105.163 142.639 110.32 139.863 114.868C137.046 119.412 133.709 123.413 129.951 126.945ZM129.078 126.015C132.689 122.563 135.354 118.153 136.709 113.449C138.086 108.736 138.152 103.825 137.425 99.2909C136.689 94.7344 135.224 90.5396 133.372 86.6884C131.532 82.8278 129.123 79.3346 126.161 76.3489C123.21 73.3538 119.801 70.8865 116.046 69.001C112.287 67.1471 108.145 65.914 103.86 65.5497C99.5658 65.1843 95.2026 65.6954 90.9443 66.8453C86.6849 68.0056 82.4807 69.8741 78.7075 72.6277C74.9658 75.3844 71.6783 79.0073 69.5144 83.2987C67.3211 87.5659 66.1548 92.4065 66.2254 97.2249C66.2961 102.043 67.6955 106.774 69.9732 110.829C72.2255 114.923 75.3044 118.325 78.5815 121.247C81.9029 124.153 85.4773 126.562 89.3552 128.503C93.2237 130.432 97.3806 132.039 101.904 132.981L105.358 133.548C106.522 133.614 107.703 133.724 108.912 133.763C110.099 133.714 111.314 133.7 112.526 133.612C113.706 133.413 114.933 133.283 116.131 133.012C120.907 131.905 125.468 129.466 129.078 126.015Z" fill="#000747"/>
<path d="M99.6089 136.887C100.613 139.14 101.448 141.375 102.114 143.604C102.822 145.837 103.384 148.045 103.912 150.26C104.928 154.685 105.616 159.088 106.104 163.47C107.026 172.239 107.103 180.943 106.431 189.581C105.758 198.23 104.368 206.816 102.132 215.347C100.983 219.604 99.6429 223.852 97.9754 228.077C97.1212 230.182 96.2342 232.295 95.1998 234.392C94.197 236.493 93.0468 238.578 91.7174 240.645L90.4502 240.548L91.1314 227.557L91.94 214.569C92.496 205.919 93.1584 197.27 93.7681 188.614C94.4726 179.969 95.1244 171.318 95.8816 162.679L97.0495 149.717L98.3438 136.768L99.6089 136.887Z" fill="#000747"/>
<path d="M101.058 161.091C100.728 162.749 100.306 164.271 99.7908 165.666C99.2943 167.084 98.7138 168.387 98.1155 169.656C96.8894 172.17 95.4785 174.41 93.9458 176.488C90.8636 180.6 87.2868 184.034 83.2753 186.827C79.2711 189.653 74.8417 191.849 69.9272 193.379C67.4568 194.116 64.8635 194.702 62.0971 195.004C60.6986 195.148 59.2823 195.258 57.7819 195.254C56.3005 195.272 54.7256 195.164 53.0583 194.919L52.3244 193.875L58.1479 189.394L64.0459 185.017C67.9839 182.11 71.987 179.295 75.9628 176.434C79.9943 173.654 83.9879 170.827 88.0467 168.092L94.1484 164.013L100.325 160.036L101.058 161.091Z" fill="#000747"/>
<path d="M84.6638 116.942C85.0897 119.019 85.362 121.037 85.4911 122.998C85.6402 124.972 85.6683 126.88 85.6542 128.784C85.5956 132.578 85.2202 136.244 84.6711 139.838C83.5107 147.011 81.5736 153.869 78.9301 160.453C76.2866 167.037 72.9789 173.351 68.8839 179.35C66.8001 182.34 64.5531 185.261 61.9893 188.053C60.6869 189.442 59.3645 190.818 57.8978 192.147C56.4628 193.48 54.8835 194.765 53.141 195.981L51.9653 195.51L55.6179 185.517L59.3936 175.568C61.9245 168.94 64.5574 162.355 67.1388 155.754C69.8128 149.184 72.4352 142.598 75.1597 136.054L79.2617 126.245L83.4869 116.481L84.6638 116.942Z" fill="#000747"/>
<path d="M99.9587 157.583C104.069 160.792 108.155 164.021 112.217 167.279C116.292 170.517 120.318 173.824 124.379 177.093L136.457 186.994C140.484 190.281 144.437 193.676 148.427 197.012L156.017 203.346L145.881 205.352C144.284 205.667 142.821 205.922 141.304 206.182C139.799 206.432 138.293 206.693 136.792 206.901C133.783 207.391 130.767 207.838 127.735 208.241C126.223 208.448 124.694 208.621 123.17 208.742L120.883 208.944C120.122 208.994 119.354 209.011 118.583 209.049C115.524 209.193 112.443 209.037 109.379 208.819C103.248 208.191 97.1177 207.042 91.1893 205.168C85.2717 203.189 79.5001 200.512 74.5774 196.612L75.0397 195.425C81.2322 195.654 86.9897 195.871 92.7485 195.972C98.5308 195.947 104.214 195.954 109.928 195.868C112.789 195.789 115.634 195.857 118.504 195.895L127.127 196.193C130.012 196.297 132.913 196.339 135.805 196.273C138.676 196.194 141.632 196.018 144.372 195.767L141.824 204.117C138.217 200.362 134.562 196.667 131.001 192.875L120.286 181.517C116.738 177.705 113.167 173.912 109.654 170.071C106.117 166.25 102.617 162.389 99.1283 158.519L99.9587 157.583Z" fill="#000747"/>
<path d="M147.319 24.1434C147.932 23.9466 148.572 23.7896 149.238 23.6723C149.917 23.5601 150.616 23.5062 151.334 23.5106C152.057 23.5027 152.798 23.574 153.557 23.7248C154.334 23.8682 155.136 24.1083 155.963 24.4452C157.124 24.9177 158.105 25.4969 158.905 26.1827C159.718 26.8736 160.334 27.6424 160.752 28.4893C161.175 29.3238 161.394 30.219 161.408 31.1748C161.439 32.1233 161.254 33.0915 160.851 34.0794C160.464 35.0303 160.003 35.7926 159.467 36.3662C158.931 36.9398 158.356 37.3968 157.743 37.7372C157.141 38.0827 156.525 38.3426 155.892 38.517C155.277 38.6841 154.688 38.8402 154.125 38.9853C153.574 39.1354 153.076 39.2995 152.629 39.4775C152.195 39.6605 151.862 39.9284 151.632 40.281L150.058 42.6632L146.131 41.0644L146.938 37.9162C146.955 37.8371 146.973 37.758 146.991 37.6788C147.021 37.6047 147.051 37.5306 147.082 37.4566C147.303 36.9132 147.626 36.4905 148.051 36.1886C148.477 35.8867 148.955 35.6494 149.486 35.4769C150.021 35.292 150.581 35.1382 151.163 35.0155C151.751 34.8804 152.315 34.7143 152.856 34.517C153.402 34.3074 153.895 34.0331 154.336 33.6941C154.781 33.3428 155.129 32.8584 155.381 32.2409C155.682 31.5 155.674 30.8129 155.356 30.1795C155.056 29.5389 154.479 29.0451 153.627 28.6982C152.973 28.4318 152.396 28.2759 151.896 28.2308C151.408 28.1907 150.969 28.1917 150.577 28.2339C150.203 28.2687 149.871 28.3063 149.581 28.3466C149.291 28.3869 149.029 28.3593 148.794 28.2638C148.263 28.0476 147.961 27.6583 147.888 27.0958L147.319 24.1434ZM141.927 47.1482C142.108 46.7036 142.356 46.3226 142.673 46.0051C143.002 45.6927 143.366 45.4523 143.765 45.2839C144.177 45.1205 144.614 45.039 145.074 45.0393C145.54 45.0273 146.007 45.1169 146.476 45.3079C146.933 45.4939 147.324 45.7538 147.649 46.0876C147.979 46.409 148.234 46.7721 148.415 47.1768C148.596 47.5815 148.688 48.0079 148.693 48.4561C148.71 48.9093 148.628 49.3582 148.447 49.8027C148.266 50.2473 148.009 50.632 147.675 50.9568C147.358 51.2742 146.994 51.5147 146.582 51.678C146.17 51.8414 145.734 51.9229 145.273 51.9226C144.813 51.9222 144.354 51.829 143.897 51.643C143.428 51.452 143.028 51.1957 142.699 50.8743C142.369 50.5529 142.114 50.1898 141.933 49.7851C141.764 49.3855 141.672 48.959 141.655 48.5058C141.655 48.0453 141.746 47.5928 141.927 47.1482Z" fill="#000747"/>
<defs>
<filter id="filter0_d_35_237" x="12.0919" y="53.8444" width="185.982" height="185.982" filterUnits="userSpaceOnUse" color-interpolation-filters="sRGB">
<feFlood flood-opacity="0" result="BackgroundImageFix"/>
<feColorMatrix in="SourceAlpha" type="matrix" values="0 0 0 0 0 0 0 0 0 0 0 0 0 0 0 0 0 0 127 0" result="hardAlpha"/>
<feOffset/>
<feGaussianBlur stdDeviation="4"/>
<feComposite in2="hardAlpha" operator="out"/>
<feColorMatrix type="matrix" values="0 0 0 0 0.784314 0 0 0 0 0.376471 0 0 0 0 0 0 0 0 0.25 0"/>
<feBlend mode="normal" in2="BackgroundImageFix" result="effect1_dropShadow_35_237"/>
<feBlend mode="normal" in="SourceGraphic" in2="effect1_dropShadow_35_237" result="shape"/>
</filter>
</defs>
</svg>
